<svg viewBox="0 0 330 200" xmlns="http://www.w3.org/2000/svg"><g><g><g><g><g><line x1="37.75" y1="174" x2="32.75" y2="174" style="visibility: inherit;" fill="rgb(0, 0, 0)" stroke="rgb(204, 204, 204)" stroke-width="1px"></line><line x1="37.75" y1="161.57142857142856" x2="32.75" y2="161.57142857142856" style="visibility: inherit;" fill="rgb(0, 0, 0)" stroke="rgb(204, 204, 204)" stroke-width="1px"></line><line x1="37.75" y1="149.14285714285717" x2="32.75" y2="149.14285714285717" style="visibility: inherit;" fill="rgb(0, 0, 0)" stroke="rgb(204, 204, 204)" stroke-width="1px"></line><line x1="37.75" y1="136.71428571428572" x2="32.75" y2="136.71428571428572" style="visibility: inherit;" fill="rgb(0, 0, 0)" stroke="rgb(204, 204, 204)" stroke-width="1px"></line><line x1="37.75" y1="124.28571428571426" x2="32.75" y2="124.28571428571426" style="visibility: inherit;" fill="rgb(0, 0, 0)" stroke="rgb(204, 204, 204)" stroke-width="1px"></line><line x1="37.75" y1="111.85714285714285" x2="32.75" y2="111.85714285714285" style="visibility: inherit;" fill="rgb(0, 0, 0)" stroke="rgb(204, 204, 204)" stroke-width="1px"></line><line x1="37.75" y1="99.42857142857146" x2="32.75" y2="99.42857142857146" style="visibility: inherit;" fill="rgb(0, 0, 0)" stroke="rgb(204, 204, 204)" stroke-width="1px"></line><line x1="37.75" y1="87" x2="32.75" y2="87" style="visibility: inherit;" fill="rgb(0, 0, 0)" stroke="rgb(204, 204, 204)" stroke-width="1px"></line><line x1="37.75" y1="74.57142857142858" x2="32.75" y2="74.57142857142858" style="visibility: inherit;" fill="rgb(0, 0, 0)" stroke="rgb(204, 204, 204)" stroke-width="1px"></line><line x1="37.75" y1="62.14285714285713" x2="32.75" y2="62.14285714285713" style="visibility: inherit;" fill="rgb(0, 0, 0)" stroke="rgb(204, 204, 204)" stroke-width="1px"></line><line x1="37.75" y1="49.714285714285694" x2="32.75" y2="49.714285714285694" style="visibility: inherit;" fill="rgb(0, 0, 0)" stroke="rgb(204, 204, 204)" stroke-width="1px"></line><line x1="37.75" y1="37.285714285714306" x2="32.75" y2="37.285714285714306" style="visibility: inherit;" fill="rgb(0, 0, 0)" stroke="rgb(204, 204, 204)" stroke-width="1px"></line><line x1="37.75" y1="24.857142857142886" x2="32.75" y2="24.857142857142886" style="visibility: inherit;" fill="rgb(0, 0, 0)" stroke="rgb(204, 204, 204)" stroke-width="1px"></line><line x1="37.75" y1="12.428571428571443" x2="32.75" y2="12.428571428571443" style="visibility: inherit;" fill="rgb(0, 0, 0)" stroke="rgb(204, 204, 204)" stroke-width="1px"></line><line x1="37.75" y1="0" x2="32.75" y2="0" style="visibility: inherit;" fill="rgb(0, 0, 0)" stroke="rgb(204, 204, 204)" stroke-width="1px"></line></g><g transform="translate(27.75, 0)"><text x="0" y="174" dx="0em" dy="0.3em" style="text-anchor: end; visibility: hidden; font-family: Roboto, sans-serif; font-size: 12px; font-weight: 200;" fill="rgb(33, 33, 33)" stroke="none" stroke-width="1px">1.7</text><text x="0" y="161.57142857142856" dx="0em" dy="0.3em" style="text-anchor: end; visibility: inherit; font-family: Roboto, sans-serif; font-size: 12px; font-weight: 200;" fill="rgb(33, 33, 33)" stroke="none" stroke-width="1px">1.8</text><text x="0" y="149.14285714285717" dx="0em" dy="0.3em" style="text-anchor: end; visibility: hidden; font-family: Roboto, sans-serif; font-size: 12px; font-weight: 200;" fill="rgb(33, 33, 33)" stroke="none" stroke-width="1px">1.9</text><text x="0" y="136.71428571428572" dx="0em" dy="0.3em" style="text-anchor: end; visibility: hidden; font-family: Roboto, sans-serif; font-size: 12px; font-weight: 200;" fill="rgb(33, 33, 33)" stroke="none" stroke-width="1px">2</text><text x="0" y="124.28571428571426" dx="0em" dy="0.3em" style="text-anchor: end; visibility: inherit; font-family: Roboto, sans-serif; font-size: 12px; font-weight: 200;" fill="rgb(33, 33, 33)" stroke="none" stroke-width="1px">2.1</text><text x="0" y="111.85714285714285" dx="0em" dy="0.3em" style="text-anchor: end; visibility: hidden; font-family: Roboto, sans-serif; font-size: 12px; font-weight: 200;" fill="rgb(33, 33, 33)" stroke="none" stroke-width="1px">2.2</text><text x="0" y="99.42857142857146" dx="0em" dy="0.3em" style="text-anchor: end; visibility: hidden; font-family: Roboto, sans-serif; font-size: 12px; font-weight: 200;" fill="rgb(33, 33, 33)" stroke="none" stroke-width="1px">2.3</text><text x="0" y="87" dx="0em" dy="0.3em" style="text-anchor: end; visibility: inherit; font-family: Roboto, sans-serif; font-size: 12px; font-weight: 200;" fill="rgb(33, 33, 33)" stroke="none" stroke-width="1px">2.4</text><text x="0" y="74.57142857142858" dx="0em" dy="0.3em" style="text-anchor: end; visibility: hidden; font-family: Roboto, sans-serif; font-size: 12px; font-weight: 200;" fill="rgb(33, 33, 33)" stroke="none" stroke-width="1px">2.5</text><text x="0" y="62.14285714285713" dx="0em" dy="0.3em" style="text-anchor: end; visibility: hidden; font-family: Roboto, sans-serif; font-size: 12px; font-weight: 200;" fill="rgb(33, 33, 33)" stroke="none" stroke-width="1px">2.6</text><text x="0" y="49.714285714285694" dx="0em" dy="0.3em" style="text-anchor: end; visibility: inherit; font-family: Roboto, sans-serif; font-size: 12px; font-weight: 200;" fill="rgb(33, 33, 33)" stroke="none" stroke-width="1px">2.7</text><text x="0" y="37.285714285714306" dx="0em" dy="0.3em" style="text-anchor: end; visibility: hidden; font-family: Roboto, sans-serif; font-size: 12px; font-weight: 200;" fill="rgb(33, 33, 33)" stroke="none" stroke-width="1px">2.8</text><text x="0" y="24.857142857142886" dx="0em" dy="0.3em" style="text-anchor: end; visibility: hidden; font-family: Roboto, sans-serif; font-size: 12px; font-weight: 200;" fill="rgb(33, 33, 33)" stroke="none" stroke-width="1px">2.9</text><text x="0" y="12.428571428571443" dx="0em" dy="0.3em" style="text-anchor: end; visibility: inherit; font-family: Roboto, sans-serif; font-size: 12px; font-weight: 200;" fill="rgb(33, 33, 33)" stroke="none" stroke-width="1px">3</text><text x="0" y="0" dx="0em" dy="0.3em" style="text-anchor: end; visibility: hidden; font-family: Roboto, sans-serif; font-size: 12px; font-weight: 200;" fill="rgb(33, 33, 33)" stroke="none" stroke-width="1px">3.1</text></g><line x1="37.75" y1="0" x2="37.75" y2="174" fill="rgb(0, 0, 0)" stroke="rgb(204, 204, 204)" stroke-width="1px"></line></g></g><g transform="translate(37, 0)" clip-path="url(#clip_0)"><clipPath id="clip_0"><rect width="292" height="174"></rect></clipPath><g><g><g><line x1="0" y1="0" x2="0" y2="174" fill="rgb(0, 0, 0)" stroke="rgb(66, 66, 66)" stroke-width="1px" opacity="0.25"></line><line x1="36.53125" y1="0" x2="36.53125" y2="174" fill="rgb(0, 0, 0)" stroke="rgb(66, 66, 66)" stroke-width="1px" opacity="0.25"></line><line x1="73.0625" y1="0" x2="73.0625" y2="174" fill="rgb(0, 0, 0)" stroke="rgb(66, 66, 66)" stroke-width="1px" opacity="0.25"></line><line x1="109.59375" y1="0" x2="109.59375" y2="174" fill="rgb(0, 0, 0)" stroke="rgb(66, 66, 66)" stroke-width="1px" opacity="0.25"></line><line x1="146.125" y1="0" x2="146.125" y2="174" fill="rgb(0, 0, 0)" stroke="rgb(66, 66, 66)" stroke-width="1px" opacity="0.25"></line><line x1="182.65625" y1="0" x2="182.65625" y2="174" fill="rgb(0, 0, 0)" stroke="rgb(66, 66, 66)" stroke-width="1px" opacity="0.25"></line><line x1="219.1875" y1="0" x2="219.1875" y2="174" fill="rgb(0, 0, 0)" stroke="rgb(66, 66, 66)" stroke-width="1px" opacity="0.25"></line><line x1="255.71875" y1="0" x2="255.71875" y2="174" fill="rgb(0, 0, 0)" stroke="rgb(66, 66, 66)" stroke-width="1px" opacity="0.25"></line><line x1="292.25" y1="0" x2="292.25" y2="174" fill="rgb(0, 0, 0)" stroke="rgb(66, 66, 66)" stroke-width="1px" opacity="0.25"></line></g><g><line x1="0" y1="174" x2="292.25" y2="174" fill="rgb(0, 0, 0)" stroke="rgb(66, 66, 66)" stroke-width="1px" opacity="0.25"></line><line x1="0" y1="161.57142857142856" x2="292.25" y2="161.57142857142856" fill="rgb(0, 0, 0)" stroke="rgb(66, 66, 66)" stroke-width="1px" opacity="0.25"></line><line x1="0" y1="149.14285714285717" x2="292.25" y2="149.14285714285717" fill="rgb(0, 0, 0)" stroke="rgb(66, 66, 66)" stroke-width="1px" opacity="0.25"></line><line x1="0" y1="136.71428571428572" x2="292.25" y2="136.71428571428572" fill="rgb(0, 0, 0)" stroke="rgb(66, 66, 66)" stroke-width="1px" opacity="0.25"></line><line x1="0" y1="124.28571428571426" x2="292.25" y2="124.28571428571426" fill="rgb(0, 0, 0)" stroke="rgb(66, 66, 66)" stroke-width="1px" opacity="0.25"></line><line x1="0" y1="111.85714285714285" x2="292.25" y2="111.85714285714285" fill="rgb(0, 0, 0)" stroke="rgb(66, 66, 66)" stroke-width="1px" opacity="0.25"></line><line x1="0" y1="99.42857142857146" x2="292.25" y2="99.42857142857146" fill="rgb(0, 0, 0)" stroke="rgb(66, 66, 66)" stroke-width="1px" opacity="0.25"></line><line x1="0" y1="87" x2="292.25" y2="87" fill="rgb(0, 0, 0)" stroke="rgb(66, 66, 66)" stroke-width="1px" opacity="0.25"></line><line x1="0" y1="74.57142857142858" x2="292.25" y2="74.57142857142858" fill="rgb(0, 0, 0)" stroke="rgb(66, 66, 66)" stroke-width="1px" opacity="0.25"></line><line x1="0" y1="62.14285714285713" x2="292.25" y2="62.14285714285713" fill="rgb(0, 0, 0)" stroke="rgb(66, 66, 66)" stroke-width="1px" opacity="0.25"></line><line x1="0" y1="49.714285714285694" x2="292.25" y2="49.714285714285694" fill="rgb(0, 0, 0)" stroke="rgb(66, 66, 66)" stroke-width="1px" opacity="0.25"></line><line x1="0" y1="37.285714285714306" x2="292.25" y2="37.285714285714306" fill="rgb(0, 0, 0)" stroke="rgb(66, 66, 66)" stroke-width="1px" opacity="0.25"></line><line x1="0" y1="24.857142857142886" x2="292.25" y2="24.857142857142886" fill="rgb(0, 0, 0)" stroke="rgb(66, 66, 66)" stroke-width="1px" opacity="0.25"></line><line x1="0" y1="12.428571428571443" x2="292.25" y2="12.428571428571443" fill="rgb(0, 0, 0)" stroke="rgb(66, 66, 66)" stroke-width="1px" opacity="0.25"></line><line x1="0" y1="0" x2="292.25" y2="0" fill="rgb(0, 0, 0)" stroke="rgb(66, 66, 66)" stroke-width="1px" opacity="0.25"></line></g></g></g><g><g><line x1="0" y1="385.28571428571433" x2="292.25" y2="385.28571428571433" fill="rgb(0, 0, 0)" stroke="rgb(153, 153, 153)" stroke-width="1.5px"></line></g></g><g><g><line x1="36.53125" y1="0" x2="36.53125" y2="174" fill="rgb(0, 0, 0)" stroke="rgb(153, 153, 153)" stroke-width="1.5px"></line></g></g><g><g><g><g><g><path stroke="rgb(255, 112, 67)" stroke-width="2px" d="M43.6566703125,-4.524901004605746L43.839326562500005,12.186346280206637L44.2046390625,-12.816985125925026L45.4832328125,-3.2663326163688224L45.66588906250001,15.89231406158634L45.8485453125,34.03830301508185L46.031201562499994,8.660602237815548L46.2138578125,16.75730002084035L46.396514062499996,-8.194247961888163L47.1271390625,-24.99968807386122L47.492451562499994,2.7113708143765747L47.6751078125,-1.027680543653363L47.857764062499996,21.633739056998483L48.040420312500004,-22.023966248308664L48.405732812500005,5.704486654001193L48.5883890625,10.565792294984334L48.7710453125,-73.90617276211887L48.9537015625,-20.22805595972892L49.319014062499996,8.51921612533855L49.5016703125,26.477479687421432L49.6843265625,52.53955128684534L49.866982812500005,9.314119124627771L50.23229531250001,37.40339596012332L50.597607812499994,26.999246018761127L50.7802640625,16.577016919291946L50.962920312499996,42.43186141304181L51.145576562500004,33.11013373712456L51.3282328125,42.38024745571473L51.5108890625,55.32271634452266L51.6935453125,49.51060305696644L52.058857812499994,28.92416412713984L52.2415140625,27.50938578467708L52.424170312499996,43.90261091176783L52.7894828125,42.029060797766995L52.972139062500005,66.3367570483798L53.3374515625,80.13446678526738L53.7027640625,73.6502289232635L53.885420312499996,31.971424656247777L54.0680765625,27.352017244266648L54.6160453125,89.52974999325365L54.79870156250001,80.20786431741563L54.9813578125,73.86648876256852L55.3466703125,67.41558300385279L55.529326562499996,71.14143395126361L55.8946390625,75.82371995611146L56.0772953125,84.02211356873346L56.2599515625,80.72629944682565L56.4426078125,83.65500879407192L56.625264062499994,77.8175823627556L56.8079203125,51.47025879766695L56.990576562499996,68.30060206466324L57.3558890625,59.46147968623792L57.538545312500005,74.00591482415908L57.7212015625,57.71153240192432L57.9038578125,34.491375454425366L58.2691703125,-16.911479059532983L58.451826562499996,5.878684496391652L58.6344828125,-36.826954134143925L58.999795312500005,18.59342448584838L59.36510781250001,52.83949786995835L59.5477640625,42.54436587437981L59.730420312499994,54.977204862675485L59.9130765625,68.01379729373879L60.095732812499996,73.49858024413706L60.278389062500004,90.48262137929648L60.4610453125,82.24404915683638L60.6437015625,97.76145054578114L61.0090140625,105.84910815422475L61.3743265625,100.28750438882041L61.556982812499996,109.18407558011323L61.739639062500004,86.31247424930434L61.9222953125,59.820339692448506L62.104951562500005,58.626596226837314L62.2876078125,66.21159556438437L62.6529203125,74.2078157054606L62.8355765625,129.16822528252058L63.018232812499996,103.91166604915975L63.2008890625,99.80219012457816L63.3835453125,105.56261502820323L63.566201562500005,90.51598265326572L63.93151406250001,36.85233815218371L64.4794828125,46.48674564185956L64.6621390625,66.21193588151463L65.02745156249999,71.45217060243868L65.2101078125,88.20230538706309L65.39276406249999,91.97255450778546L65.5754203125,90.7359561545963L65.7580765625,63.73183411669058L65.9407328125,9.117499338030145L66.1233890625,43.016233708609455L66.3060453125,57.34912245129221L66.4887015625,61.815840336750846L66.8540140625,59.42485993346961L67.2193265625,68.11103002061992L67.40198281250001,67.31494600331261L67.5846390625,76.5822131900177L67.7672953125,6.205511647269568L67.9499515625,52.16900311066747L68.3152640625,78.49011940877631L68.4979203125,68.76453218276755L68.6805765625,47.56965757260002L68.8632328125,69.74022076295519L69.0458890625,91.04218565427148L69.4112015625,96.15057883008906L69.59385781249999,96.60676398397526L69.7765140625,11.698660473863821L69.95917031249999,58.008043035940084L70.1418265625,61.538284994494035L70.3244828125,12.94727890162107L70.5071390625,38.94309788710652L71.0551078125,31.827228491959815L71.2377640625,59.29536998767552L71.4204203125,87.4654954769716L71.60307656250001,87.06483966528981L71.7857328125,92.0334951306558L72.1510453125,99.59346422447675L72.5163578125,12.152759203108218L72.6990140625,33.6171647022064L72.8816703125,12.034167779933286L73.0643265625,50.869637456464474L73.4296390625,84.25812228820101L73.6122953125,80.42373250051025L73.7949515625,99.14512278255887L73.9776078125,92.97012698592417L74.1602640625,105.03763921907263L74.3429203125,90.26253695398997L74.52557656249999,107.67342343821953L74.70823281249999,94.95738492034485L74.89088906250001,106.2643552740627L75.0735453125,98.11568079030081L75.43885781249999,96.88696736220713L75.62151406250001,110.24521872560418L75.8041703125,51.905392888717685L75.9868265625,74.45069158628411L76.3521390625,92.83606474730266L76.53479531250001,101.16239457805688L76.7174515625,104.03002055573305L76.9001078125,106.53386534334493L77.0827640625,110.76037450821819L77.2654203125,111.1147585914317L77.4480765625,96.51314340864317L77.6307328125,60.99520389339148L77.81338906250001,65.58014990321719L78.3613578125,90.89665005719955L78.7266703125,106.03316509622687L78.9093265625,111.13898995543249L79.09198281249999,105.56032895119966L79.27463906249999,115.57372573571874L79.45729531250001,101.73687770784096L79.6399515625,142.3170762843246L79.8226078125,113.10910010256498L80.00526406249999,122.23644670028935L80.18792031250001,33.530064038937525L80.5532328125,68.02382722646313L80.7358890625,75.01139844660437L81.10120156250001,80.6595135794634L81.2838578125,98.43476557958022L81.4665140625,92.42534901209837L81.6491703125,100.08579436928646L81.8318265625,108.84999532012802L82.0144828125,100.5948553234855L82.5624515625,102.51008320751903L82.7451078125,98.44699443265525L82.9277640625,90.56904540248692L83.1104203125,109.36114776859614L83.4757328125,103.04560147788655L83.65838906249999,107.86429353225718L83.84104531249999,98.90424026904743L84.02370156250001,93.65152493971388L84.3890140625,89.78699667028411L84.57167031249999,108.47017779299429L84.9369828125,107.96249395476212L85.4849515625,101.26321003187131L85.8502640625,95.36048903247207L86.0329203125,106.9197029958992L86.3982328125,98.83346675494569L86.5808890625,111.31050859060868L86.7635453125,111.6615321016047L86.94620156250001,98.44997747651286L87.3115140625,108.73391435434205L87.4941703125,101.18118862529181L87.6768265625,116.88014155586882L87.8594828125,117.92736439170352L88.0421390625,108.71835228871738L88.22479531249999,120.37256692775662L88.40745156249999,119.04932467639449L88.59010781250001,107.6531361745937L88.7727640625,121.16250677832538L88.9554203125,123.89762714547767L89.13807656249999,107.871352138945L89.5033890625,104.89721403801438L89.6860453125,98.44500002859999L90.4166703125,95.62191037722386L90.5993265625,114.0456699019804L90.7819828125,124.14823392121228L90.9646390625,110.52059659073832L91.1472953125,107.23037040997453L91.3299515625,100.52512658100669L91.51260781250001,109.383542380358L91.8779203125,109.65050405871665L92.0605765625,117.91546616748623L92.2432328125,115.68463594961977L92.4258890625,104.08903662370074L92.6085453125,121.92426355910729L92.79120156249999,125.87051329751269L92.97385781249999,126.65405219978625L93.3391703125,119.79278625020449L93.5218265625,125.8859299887789L93.70448281249999,114.55973481865443L93.88713906250001,78.1645421284625L94.0697953125,77.28120219270947L94.2524515625,122.08130162862706L94.6177640625,111.55403125401426L94.80042031250001,118.64048212324946L94.9830765625,115.1152503106318L95.1657328125,116.6555650412462L95.3483890625,95.94953837101764L95.7137015625,112.42819200476214L96.2616703125,112.53179087097425L96.6269828125,113.64214153373652L96.8096390625,116.66150202665233L96.9922953125,107.01979604805757L97.1749515625,97.23997271070886L97.35760781249999,96.40045528758431L97.54026406249999,87.75679244658103L97.9055765625,90.62990061421499L98.0882328125,94.3582296642705L98.27088906249999,86.63073620380085L98.6362015625,101.05119887102315L98.8188578125,102.48150046362255L99.0015140625,84.2941013726647L99.1841703125,85.85474064581214L99.36682656250001,97.49716241225886L99.5494828125,115.69905342498593L99.7321390625,106.35403531012722L99.9147953125,117.85730148087615L100.0974515625,104.4200062590963L100.2801078125,104.83829051824027L100.4627640625,95.58219380208533L100.8280765625,129.48516913584365L101.0107328125,116.4153248636386L101.1933890625,123.06307474867978L101.3760453125,118.1134855821093L101.7413578125,115.4068051859355L101.92401406249999,102.73877588674264L102.28932656250001,100.53879756787322L102.4719828125,105.07083887833556L102.6546390625,112.73155915128113L102.83729531249999,119.9174627233475L103.01995156250001,122.29904747675579L103.2026078125,112.0959712477199L103.3852640625,123.24688678708846L103.5679203125,111.4591492994259L103.7505765625,122.29583506316293L103.93323281250001,105.63940681705513L104.6638578125,107.1166869162044L104.8465140625,117.89147453571768L105.0291703125,111.9232953169157L105.3944828125,107.92537039388478L105.5771390625,112.52656462284908L106.1251078125,120.128193706658L106.3077640625,119.71850590643757L106.67307656249999,108.80248606644554L106.85573281250001,114.43696954514076L107.0383890625,125.25624573116507L107.58635781250001,129.20320291791217L107.7690140625,125.59240533991967L107.9516703125,126.71774827292151L108.1343265625,117.98195378095264L108.3169828125,127.89865568771742L108.49963906250001,138.64946761851945L108.6822953125,141.12382320155254L108.8649515625,134.73275440175777L109.0476078125,127.74297823963516L109.2302640625,124.148023146566L109.4129203125,147.82242868689417L109.5955765625,130.11718163186657L109.77823281250001,109.83905491919217L109.9608890625,109.95027890532042L110.1435453125,120.37007483678359L110.3262015625,126.13793107259366L110.5088578125,128.73782268142415L110.6915140625,125.50825073449099L110.8741703125,134.53888399847747L111.05682656249999,137.22212152152298L111.23948281249999,141.20648992341182L111.7874515625,142.32776990445166L111.97010781249999,69.80267213445221L112.15276406250001,104.74810288176296L112.3354203125,92.21999768595826L112.8833890625,26.20547856370591L113.06604531250001,76.76828848154194L113.4313578125,89.35453744940752L113.6140140625,103.98094427031242L113.7966703125,117.38951816566818L113.9793265625,127.37016700749415L114.1619828125,115.06796466394297L114.34463906250001,128.87055900913325L114.5272953125,138.95709698417608L114.8926078125,131.44541738981155L115.0752640625,126.40466577485547L115.2579203125,127.41355989211581L115.80588906249999,120.944191511049L115.98854531250001,116.37063903033892L116.1712015625,109.82227726062803L116.3538578125,114.95222015973896L116.53651406249999,133.97700895120315L116.71917031250001,130.7710685157327L116.9018265625,129.1445475098477L117.0844828125,121.52429370998405L117.3767328125,123.40200173040243L117.55938906249999,128.0931219018018L117.74204531250001,88.5606693599532L117.9247015625,116.55064324325639L118.65532656250001,130.40158093529448L118.8379828125,141.54916680872657L119.0206390625,147.24258609085553L119.20329531249999,149.34929929485057L119.38595156250001,154.29050723499142L119.5686078125,155.8932493810165L119.7512640625,156.713549917001L120.1165765625,155.0253526189846L120.4818890625,134.11644475402542L120.6645453125,130.6094598133178L120.8472015625,141.7990775816073L121.0298578125,154.50798736459026L121.21251406249999,163.99876985645471L121.3951703125,77.97441074156183L121.57782656250001,102.91519448614459L121.9431390625,104.35338092377728L122.12579531249999,107.44330528439505L122.30845156250001,116.09233327374282L122.4911078125,120.25360182494605L122.85642031249999,125.44851277299846L123.03907656250001,116.80505448255958L123.22173281250001,119.90371396177L123.76970156249999,135.84398790617576L123.95235781250001,123.17843351954947L124.1350140625,126.38252177184236L124.3176703125,145.1268788375326L124.50032656249999,156.53541430562797L124.6829828125,153.94678386714665L124.8656390625,133.1778666263531L125.2309515625,143.91250568628288L125.4136078125,159.5888263106345L125.5962640625,163.27232530832282L125.77892031249999,141.3868781888825L125.9615765625,126.20175511113575L126.14423281250001,126.71799528709685L126.69220156249999,117.24356529098024L126.87485781250001,122.65662158120433L127.2401703125,117.48731316849272L127.42282656249999,121.03953971187795L127.60548281250001,117.86240532061342L127.9707953125,124.54001219479204L128.1534515625,134.3235230001856L128.3361078125,122.2989275938387L128.88407656249998,77.99822331328738L129.0667328125,98.28434233496603L129.2493890625,105.5151583130105L129.4320453125,9.249455574790147L129.6147015625,59.95419158130683L129.7973578125,103.22502812583836L129.9800140625,121.25174823307746L130.1626703125,122.66554519817345L130.3453265625,143.18404647707578L130.7106390625,129.42542643121095L130.89329531250002,140.22307059032445L131.0759515625,139.37089006733814L131.2586078125,123.384139003433L131.4412640625,110.28900241124123L131.6239203125,130.69009657831907L131.9892328125,130.56155237208387L132.5372015625,134.7731930499026L132.7198578125,116.62989134612462L133.2678265625,127.72698989353816L133.45048281249998,123.2502161638189L133.6331390625,142.29350433208037L133.8157953125,122.75618184140956L133.9984515625,139.8040058337973L134.1811078125,126.57938040719105L134.3637640625,131.7167248640569L134.5464203125,95.53309727565546L134.7290765625,97.16848665475221L134.9117328125,79.52150135891407L135.0943890625,101.34421288592247L135.2770453125,156.3325545663139L135.45970156250002,144.77452355726706L135.6423578125,140.34184486076583L135.8250140625,135.86886448590874L136.1903265625,132.3369958984021L136.3729828125,142.4703608386018L136.5556390625,138.944685304387L136.9209515625,134.64330191182793L137.2862640625,129.01877710765933L137.4689203125,108.7983873016701L137.6515765625,120.78552408294561L137.8342328125,118.57787049747944L138.01688906249998,115.42975918443038L138.3822015625,107.51192535667528L138.5648578125,92.5064588682672L138.9301703125,42.22660007202405L139.1128265625,65.03357168850425L139.2954828125,21.184004669291493L139.4781390625,58.75758812719746L139.8434515625,76.53876972986896L140.02610781250002,109.04580582683042L140.2087640625,95.58672460022426L140.3914203125,106.11920277793061L140.7567328125,113.6185894452095L140.9393890625,136.844220119697L141.1220453125,128.81839924078966L141.4873578125,118.21379312374972L141.6700140625,137.31315747967062L141.8526703125,113.08828745611642L142.4006390625,111.2894461566184L143.1312640625,125.50859205124907L143.3139203125,124.86387756329512L143.4965765625,173.3110442127774L143.8618890625,157.7735778379605L144.0445453125,159.29076478836504L144.2272015625,143.01830813689142L144.4098578125,151.68585195355908L144.59251406250002,95.93454472294285L144.7751703125,112.3714467734063L144.9578265625,114.99284307232712L145.1404828125,112.90290199730953L145.3231390625,121.37033897561612L145.5057953125,137.4335846845248L145.6884515625,132.10733065952206L145.87110781250001,141.72540153575406L146.2364203125,134.28762739606177L146.4190765625,108.6199787922862L146.6017328125,57.23338330198307L146.7843890625,86.13883846049887L146.96704531249998,97.91558187290406L147.33235781250002,121.65030484164664L147.5150140625,116.054952486374L147.6976703125,130.31417455742414L147.8803265625,125.21115256487265L148.24563906249998,127.54592347142743L148.42829531249998,60.40038935114957L148.61095156250002,101.32818674222925L148.7936078125,104.16853900827178L148.9762640625,126.73932492779022L149.15892031250002,116.47678009810129L149.3415765625,96.82848040801677L149.5242328125,111.2537664173303L149.70688906249998,131.11381356024575L149.8895453125,124.87929113994903L150.07220156250003,133.40703544108877L150.2548578125,139.82879486051766L150.6201703125,150.27487497037905L150.8028265625,133.0125629489284L150.9854828125,76.03964108988757L151.1681390625,93.52323220402499L151.3507953125,100.94103201083927L151.89876406250002,113.44445131077777L152.0814203125,134.537040779404L152.2640765625,128.45619494624523L152.4467328125,134.65521481407805L152.6293890625,129.93011641111704L152.81204531249998,138.43535125361777L153.3600140625,124.99644315987675L153.5426703125,80.11474029102406L153.72532656250002,106.42182952944665L153.9079828125,49.0403384272453L154.0906390625,96.81993965531566L154.27329531249998,102.9800510385856L154.8212640625,124.8169966821549L155.00392031250001,117.41300973545437L155.3692328125,116.17490605010002L155.5518890625,132.79874455626853L155.7345453125,128.569482471153L155.9172015625,138.76549313913364L156.09985781249998,136.70349950548072L156.6478265625,139.8304662471945L156.8304828125,88.03446454969088L157.0131390625,115.87976870380919L157.1957953125,129.48303230328352L157.56110781249998,135.67328747856698L157.9264203125,140.59780799085462L158.29173281250002,100.44267922396486L158.6570453125,88.24455991496797L158.83970156249998,98.0434326391314L159.0223578125,122.28060076259085L159.20501406250003,75.80040759304381L159.3876703125,110.11217270000878L159.7529828125,116.15468495567244L159.9356390625,135.40180983062913L160.1182953125,127.12634999531876L160.3009515625,166.96982574535147L160.4836078125,142.4358498986356L160.66626406249998,151.4355079816967L161.03157656250002,141.03984608148107L161.2142328125,145.809874453938L161.3968890625,134.8607787329445L161.5795453125,138.47456171401424L161.94485781249998,145.7184415272445L162.12751406249998,135.14329734258138L162.31017031250002,135.98816647502863L162.4928265625,144.59217465657133L162.85813906250002,150.3275325172007L163.0407953125,155.54643750795313L163.2234515625,145.09276009649898L163.40610781249998,140.52600697735042L163.5887640625,128.95529210602695L163.77142031250003,142.66905037696716L163.9540765625,145.25482285444133L164.13673281250001,137.23961129100778L164.3193890625,141.53839641654628L164.6847015625,132.62585914552974L164.8673578125,142.7991461608626L165.23267031249998,152.37430248751573L165.7806390625,154.36686795665562L165.9632953125,140.95545538833838L166.1459515625,131.80284740924643L166.51126406249998,125.96064096246329L166.69392031249998,135.76896742997783L167.0592328125,127.56587411686994L167.2418890625,138.8404494933371L167.42454531250002,140.25168372634982L167.7898578125,140.07965752236123L167.97251406249998,144.70663725415682L168.1551703125,134.6902064779475L168.33782656250003,147.94380047400952L168.5204828125,147.96171591738388L168.70313906250001,137.74789994990545L168.8857953125,147.57004260186642L169.0684515625,145.70698605448007L169.2511078125,135.37075409999068L169.4337640625,146.62838090826273L169.6164203125,148.79744285650287L169.79907656249998,134.28566184056714L169.9817328125,146.22837990768502L170.16438906250002,140.86855445566712L170.3470453125,131.16878132125353L170.5297015625,128.0478969545912L170.7123578125,148.2504829689627L170.8950140625,148.35392593718728L171.26032656249998,155.2708269558976L171.44298281250002,158.51016213739265L171.6256390625,142.0445071967248L171.99095156250002,131.81002776948577L172.1736078125,138.0147107464039L172.3562640625,135.30749590868393L172.53892031249998,134.6874436904043L172.7215765625,143.27707260832915L173.6348578125,146.7179886255095L173.8175140625,135.50924078970303L174.0001703125,133.63512175631865L174.36548281249998,129.7582265048933L174.5481390625,97.3717765379632L174.73079531250002,101.91701387831819L174.9134515625,147.5330076526614L175.0961078125,147.9709823657537L175.64407656249998,142.82156701519023L175.82673281249998,146.5108417250748L176.00938906250002,126.71551156253688L176.1920453125,123.32503164280952L176.3747015625,139.14734472486506L176.55735781250002,130.18368007078504L176.7400140625,126.82112262703961L176.9226703125,133.81814749786335L177.10532656249998,126.87625063337904L177.2879828125,133.37723638172332L177.47063906250003,139.6747147925306L177.6532953125,131.6003272875144L178.0186078125,127.98638383327177L178.2012640625,116.45575626104878L178.3839203125,133.4156227553475L178.5665765625,128.73076288965873L178.7492328125,126.84729374431944L178.93188906249998,117.71817792048083L179.1145453125,128.76038368099944L179.29720156250002,136.61669250631175L179.4798578125,133.93354247478663L180.0278265625,136.73583110849867L180.21048281249998,147.8013164424604L180.39313906249998,136.0579196654553L180.57579531250002,146.60455612710174L180.7584515625,132.94183864474076L180.9411078125,133.6156092609324L181.3064203125,134.85304115906362L181.4890765625,161.39414143465675L181.67173281249998,146.78691883710368L181.8543890625,150.9584865798196L182.03704531250003,143.34382767002487L182.2197015625,148.9270346587427L182.40235781250001,143.0419135551682L182.5850140625,129.1944993566378L183.3156390625,137.4638996806854L183.49829531249998,145.6859277044858L183.6809515625,146.14415782933474L183.86360781250002,135.8990697653935L184.0462640625,146.90393288597824L184.4115765625,152.39283483850744L184.5942328125,133.74736668330817L184.95954531249998,127.40549055136674L185.14220156250002,137.1990041560633L185.3248578125,135.00346174569574L185.69017031250002,132.03214786999698L185.8728265625,144.13793632462446L186.0554828125,136.76078371620497L186.23813906249998,139.83849390482413L186.4207953125,131.6573825367421L186.60345156250003,146.58011924383393L186.7861078125,149.51273561043521L186.96876406250001,145.08144086740774L187.1514203125,149.20387553402063L187.3340765625,135.31478192005662L187.5167328125,138.98430428092715L187.6993890625,148.17585050744265L187.8820453125,146.8464386682656L188.06470156249998,135.6414382316949L188.43001406250002,137.17459529985678L188.6126703125,142.19189906158434L188.7953265625,136.7678577357264L188.9779828125,146.82530535439184L189.1606390625,157.778328299741L189.34329531249998,160.80945307540384L189.70860781250002,151.8447738627812L189.8912640625,146.99346376301176L190.25657656250002,138.38641309558432L190.4392328125,124.15613475419246L190.80454531249998,136.78987660479558L191.16985781250003,143.08140723816334L191.7178265625,149.4726199340671L191.9004828125,155.60253740909224L192.4484515625,158.11283801192695L192.8137640625,164.4700472928478L192.99642031250002,137.4569343706689L193.1790765625,142.29699508688324L193.5443890625,64.11754502772462L193.7270453125,104.74380849551656L193.90970156249998,117.13772753243826L194.4576703125,130.4293786317589L194.6403265625,142.29595477762712L195.0056390625,151.95433960274306L195.1882953125,159.63543693458024L195.37095156249998,67.44174494883408L195.5536078125,96.50821609989825L195.73626406250003,112.32867315315532L195.9189203125,126.3507414650264L196.10157656250001,141.95204164589643L196.4668890625,136.76264486145666L196.6495453125,131.82052130190118L196.8322015625,126.37187025445961L197.19751406249998,145.902127366822L197.3801703125,144.06944473053105L197.56282656250002,143.24363504499675L197.7454828125,136.76646897669633L197.85507656250002,100.2193975570645L198.0377328125,121.46080505558356L198.2203890625,138.80953554592776L198.40304531249998,109.21305908303236L198.5857015625,137.34468179326862L198.7683578125,141.2031072801107L198.95101406249998,133.65493615848908L199.31632656250002,148.6570868242482L199.4989828125,160.37069707462533L199.8642953125,166.0299467133159L200.22960781249998,169.26620066512248L200.4122640625,171.39560078760582L200.9602328125,154.23164442118934L201.14288906250002,141.67705278103566L201.5082015625,154.32343311951422L201.69085781249998,167.4998194515033L201.8735140625,177.41547287000304L202.05617031249997,97.97495647111242L202.2388265625,121.7303183716288L202.6041390625,123.10507885125925L202.7867953125,126.57923952899108L203.1521078125,133.98025431048197L203.3347640625,132.78295587869988L203.70007656250002,128.59028133971995L203.88273281250002,133.79409132733053L204.0653890625,153.9440995423613L204.2480453125,134.4845217175171L204.4307015625,150.7135477810945L204.6133578125,139.70891447449512L204.79601406249998,143.11565420380109L204.9786703125,161.68071266366422L205.16132656250002,172.3942674419485L205.5266390625,151.68682746672988L205.70929531250002,149.09176790381372L205.8919515625,159.53088940352566L206.0746078125,174.1909694979809L206.25726406249998,177.68689161514854L206.4399203125,156.80776801265083L206.62257656249997,142.14493912790297L206.8052328125,142.5599326954046L206.98788906250002,156.90267181958737L207.1705453125,168.73061412058718L207.53585781249998,160.35481698374844L207.9011703125,147.75266737378178L208.08382656249998,145.77452492923038L208.26648281250002,138.01249496721664L208.44913906250002,130.18267106676453L208.6317953125,138.48116884031506L208.8144515625,149.17584626486496L208.9971078125,138.18815339316143L209.1797640625,142.56285920225255L209.36242031249998,116.25671740036245L209.72773281250002,126.75072845188824L209.9103890625,128.23269578608134L210.27570156250002,136.5759302016205L210.6410140625,147.53868984028907L210.82367031249998,143.93832637234794L211.0063265625,161.58719890590214L211.18898281249997,121.88271730365922L211.55429531250002,141.36514445079902L211.7369515625,146.92337951279944L211.9196078125,135.270537935428L212.10226406249998,124.42616027586163L212.2849203125,145.21062723393737L212.4675765625,134.04799082378705L212.65023281249998,139.28744440206552L213.01554531250002,137.4856859296566L213.1982015625,144.24710142399616L213.7461703125,144.6920500504121L213.92882656249998,151.70880301467022L214.6594515625,163.352326404793L214.84210781250002,148.0304812910046L215.0247640625,151.27378035829068L215.2074203125,118.04384557921479L215.39007656249998,117.36694883247064L215.5727328125,101.9480543005287L215.75538906249997,120.88028026882864L215.9380453125,174.49142020161526L216.4860140625,162.19749322662102L216.66867031249998,156.93119194329248L216.8513265625,150.42246507878238L217.0339828125,160.10933734597984L217.21663906249998,154.77401203032525L217.58195156250002,149.58694974934488L217.7646078125,156.7273924780641L217.9472640625,148.35449933179171L218.1299203125,127.9813753214697L218.3125765625,136.95692014124174L218.6778890625,133.39992464268482L218.86054531250002,149.5815832553505L219.0432015625,135.11021320110896L219.2258578125,116.13867853079897L219.40851406250002,120.11558817621861L219.5911703125,66.23472926921295L219.7738265625,85.92821791627281L219.95648281249998,40.256692249441116L220.1391390625,76.4252412516771L220.32179531249997,115.86766755744632L221.0524203125,123.97290929824432L221.4177328125,129.62811240187054L221.6003890625,152.56564571892818L221.78304531249998,144.01432756785766L221.96570156250002,163.0353484813056L222.14835781250002,145.76900424825948L222.6963265625,146.6225598572617L223.06163906249998,137.85416869633949L223.2442953125,123.16525534748595L223.6096078125,127.69850255737722L223.7922640625,141.2232466934665L224.1575765625,187.05612090306462L224.3402328125,165.23481814992329L224.7055453125,168.93964235316287L225.4361703125,160.58506609568767L225.6188265625,147.56986646906682L225.80148281249998,138.40087387510115L225.9841390625,141.37941076315795L226.1667953125,154.80282698844286L226.8974203125,146.34122549757012L227.0800765625,122.74871848553636L227.2627328125,72.30218775418109L227.4453890625,99.99731620671662L227.8107015625,111.28269145459464L227.99335781250002,135.5887079366562L228.1760140625,131.36624157172974L228.54132656250002,131.2754835283737L228.7239828125,132.32494010220142L228.9066390625,137.49317327893732L229.2719515625,154.10977095050362L229.6372640625,161.815694805366L229.81992031250002,144.8520237492387L230.0025765625,124.53130102845645L230.36788906249998,144.98905461587933L230.5505453125,138.63941112493532L230.7332015625,147.44027338994007L230.91585781249998,155.62915014029164L231.09851406250002,76.21722263574968L231.28117031250002,117.91976706075893L231.4638265625,119.94478116650038L231.6464828125,76.28198351138879L231.8291390625,100.09716290041234L232.0117953125,110.07818917941285L232.19445156249998,119.92803538831524L232.3771078125,112.49879145873203L232.55976406250002,124.71091173186326L232.9250765625,127.94742972736785L233.10773281250002,140.11932841845632L233.2903890625,138.0898796416674L233.65570156249998,153.67219864539993L233.8383578125,67.0057209751341L234.02101406249997,87.17036035869235L234.2036703125,63.564108506693216L234.5689828125,33.10011320037298L234.7516390625,92.04884949501805L234.93429531249998,105.67174193708827L235.1169515625,132.79547639416037L235.66492031250002,128.72953762504432L235.84757656250002,150.13044842417818L236.0302328125,142.1891382986737L236.9435140625,155.13165527055116L237.3088265625,156.12832827422122L237.4914828125,106.07022805671326L237.67413906250002,135.63790133478216L237.8567953125,147.9293776956403L238.0394515625,149.03208867695014L238.4047640625,151.34570057043226L238.58742031249997,155.3193684236846L238.7700765625,143.58406999721265L238.95273281250002,107.33664415657427L239.1353890625,113.64742722226836L239.3180453125,101.85794248818975L239.50070156249998,111.96625003685043L239.6833578125,135.43923639764645L239.8660140625,90.67839899452396L240.23132656250002,121.08323342420634L240.41398281250002,127.55378751731418L240.5966390625,147.033071798457L240.7792953125,139.44316210547626L240.9619515625,178.3741395161806L241.1446078125,155.04584925688854L241.32726406249998,164.20387749094868L241.8752328125,165.23935345030998L242.0578890625,152.46172550620372L242.4232015625,146.1647882726466L242.6058578125,155.1063142118005L242.78851406249998,147.25764678273913L242.9711703125,147.55320618193508L243.15382656249997,157.10314489729757L243.3364828125,147.23444357028424L243.51913906250002,156.29601535590695L243.7017953125,163.99977858555778L243.8844515625,154.4872413344445L244.06710781249998,152.6268919933765L244.4324203125,161.3690906354572L244.61507656249998,162.4901299810537L244.98038906250002,162.66177682155282L245.1630453125,149.57063239346007L245.5283578125,157.53658378014427L245.7110140625,146.38402904376494L245.89367031249998,159.11732466317562L246.0763265625,183.74011988902214L246.25898281250002,165.87153933410036L246.4416390625,167.682413749822L246.6242953125,153.96609516914367L246.80695156250002,143.98194600158908L246.9896078125,155.31469296651042L247.35492031249998,158.0136483964398L247.5375765625,162.2381506238624L247.72023281249997,148.41398377009554L248.08554531250002,151.45217396490767L248.2682015625,139.6177181275495L248.63351406249998,149.49813789557268L248.8161703125,142.50469404715807L248.9988265625,156.2477006195354L249.18148281249998,158.49227309694098L249.36413906250002,149.09088905478498L249.54679531250002,159.01971936121575L249.7294515625,157.43640246328704L250.46007656249998,144.51802621940115L250.6427328125,157.2763669172486L250.82538906250002,153.3837006990988L251.1907015625,145.24990812654283L251.37335781250002,162.46874522992962L251.5560140625,161.57778980970633L251.92132656249998,167.43863690451363L252.1039828125,169.60419158244906L252.28663906249997,153.37115695538984L252.65195156250002,143.23310549024177L253.0172640625,142.73922388276372L253.3825765625,153.322641968426L253.5652328125,152.62289072086799L253.74788906249998,141.32622649250092L253.93054531250002,158.26714552968198L254.2958578125,160.04559134645646L254.4785140625,147.83617891109304L254.6611703125,144.72131309224383L254.8438265625,153.96428384882427L255.02648281249998,146.94217695297132L255.2091390625,113.59151900028269L255.7571078125,133.83846227569708L255.93976406250002,137.01857932780754L256.4877328125,149.9951703775116L256.67038906249996,134.69102860175983L256.8530453125,135.05114553041452L257.2183578125,133.55508922821312L257.4010140625,135.2519583727651L257.9489828125,144.31140501993156L258.13163906249997,151.79040844600607L258.3142953125,144.13441766630623L258.6796078125,140.99429765200367L258.8622640625,129.82753205298548L259.0449203125,146.62211733545075L259.2275765625,142.30191880498313L259.4102328125,138.7455143811344L259.5928890625,131.355282653862L259.7755453125,143.24058343737946L260.14085781250003,143.49867534329837L260.6888265625,148.26839810595547L260.8714828125,159.29433424975147L261.4194515625,146.0949618866952L261.60210781250004,147.86951418907626L261.7847640625,137.14024984950532L261.9674203125,142.15142055647965L262.1500765625,170.91593118912985L262.5153890625,170.54769656900768L262.69804531249997,159.31361130383135L262.8807015625,163.77814828374184L263.0633578125,157.24972076171414L263.2460140625,142.96213166771312L263.4286703125,112.20213842903362L263.6113265625,122.18523396390124L263.7939828125,133.62868147352938L263.9766390625,146.18396809170693L264.1592953125,156.19951541193072L264.3419515625,157.51106578347873L264.5246078125,148.0234771078523L264.70726406250003,158.46723189132445L264.8899203125,147.90727215089052L265.0725765625,157.52134924917863L265.2552328125,142.04838770502474L265.4378890625,149.3244907627069L265.80320156249996,155.10538988783478L265.9858578125,151.17486645691872L266.5338265625,158.90211973649514L266.7164828125,150.7261477933916L267.0817953125,143.12588768334174L267.26445156249997,157.15243607582096L267.4471078125,161.1863400056959L267.6297640625,156.71561901403328L267.8124203125,160.85392705068418L267.9950765625,147.6246262859089L268.5430453125,151.17171285574335L268.7257015625,143.1709391339957L269.27367031250003,150.02878558678603L269.4563265625,146.16233315834168L269.6389828125,156.52657377326602L269.8216390625,165.90625647240776L270.0042953125,169.93442279333496L270.1869515625,165.0330899133362L270.5522640625,159.53313233697878L270.73492031250004,179.05315830342366L271.1002328125,153.76089270304504L271.2828890625,150.67316463652344L271.6482015625,157.63538507516182L272.0135140625,155.2826431506574L272.1961703125,162.96111899270244L272.3788265625,165.80801489657622L272.5614828125,168.20734901679006L272.9267953125,164.44525520475176L273.1094515625,167.32872235034216L273.4747640625,173.07304692164502L273.6574203125,147.50794689252385L273.84007656250003,152.93734980545798L274.0227328125,162.08313536512557" style="fill: none;" fill="none"></path></g></g></g></g><g opacity="0.2"><g><g><g><path stroke="rgb(255, 112, 67)" stroke-width="2px" d="M42.7433890625,-11.217990670885364L43.1087015625,3.155526024954676L43.291357812499996,-64.23833308901104L43.474014062500004,-1.5589585304260254L43.6566703125,27.589736938476562L43.839326562500005,37.25321388244629L44.2046390625,-50.3219792502267L44.3872953125,7.972774437495649L45.1179203125,-33.76881980895996L45.300576562500005,-29.08088554654801L45.4832328125,23.87005867276873L45.66588906250001,44.63028390066965L45.8485453125,61.257286344255725L46.031201562499994,-29.405948843274793L46.2138578125,28.902346679142553L46.396514062499996,-45.62156990596223L47.1271390625,-10.898498194558263L47.492451562499994,44.27795914241246L47.6751078125,-6.6362575803484125L47.857764062499996,55.62586845670428L48.040420312500004,-87.51052420479905L48.405732812500005,47.2971660069057L48.5883890625,17.857750756399987L48.7710453125,-200.61412034715923L48.9537015625,60.289119243621826L49.319014062499996,51.640124252864304L49.5016703125,53.41487503051758L49.6843265625,91.63265868595667L49.866982812500005,-55.52402911867412L50.23229531250001,79.53731121335711L50.597607812499994,11.39302110671999L50.7802640625,0.9436732700892885L50.962920312499996,81.21412815366473L51.145576562500004,19.127542223249176L51.3282328125,56.28541803359985L51.5108890625,74.73641967773438L51.6935453125,40.792433125632165L52.058857812499994,-1.9554942675999012L52.2415140625,25.38721827098302L52.424170312499996,68.49244860240393L52.7894828125,39.21873562676567L52.972139062500005,102.79830142429896L53.3374515625,100.83103139059885L53.7027640625,63.92387213025775L53.885420312499996,-30.54678174427577L54.0680765625,20.42290612629483L54.6160453125,182.79634911673412L54.79870156250001,66.22503580365863L54.9813578125,64.35442543029785L55.3466703125,57.73922436577934L55.529326562499996,76.73021037237986L55.8946390625,82.84714896338328L56.0772953125,96.31970398766653L56.2599515625,75.78257826396398L56.4426078125,88.0480728149414L56.625264062499994,69.06144271578107L56.8079203125,11.949273450034022L56.990576562499996,93.54611696515765L57.3558890625,46.202796118600034L57.538545312500005,95.82256753104075L57.7212015625,33.26995876857213L57.9038578125,-0.3388599668230219L58.2691703125,-94.01576083047044L58.451826562499996,40.063929830278674L58.6344828125,-100.88541207994727L58.999795312500005,101.72399241583689L59.36510781250001,104.20860794612341L59.5477640625,27.101667881011963L59.730420312499994,73.62646334511894L59.9130765625,87.56868594033376L60.095732812499996,81.72575466973441L60.278389062500004,115.95868308203562L60.4610453125,69.88619082314628L60.6437015625,121.03755262919836L61.0090140625,117.98059456689016L61.3743265625,91.94509874071396L61.556982812499996,122.52893236705236L61.739639062500004,52.005072253091L61.9222953125,20.08213785716466L62.104951562500005,56.83598102842059L62.2876078125,77.58909457070487L62.6529203125,86.20214591707501L62.8355765625,211.60883964811052L63.018232812499996,66.02682719911847L63.2008890625,93.63797623770579L63.3835453125,114.20325238364084L63.566201562500005,67.94603409085956L63.93151406250001,-43.64312859943934L64.4794828125,60.93835687637329L64.6621390625,95.79972124099731L65.02745156249999,79.31252268382482L65.2101078125,113.32750756399973L65.39276406249999,97.62792818886892L65.5754203125,88.88105862481252L65.7580765625,23.225651059831897L65.9407328125,-72.80400282996038L66.1233890625,93.8643352644784L66.3060453125,78.84845556531634L66.4887015625,68.51591716493878L66.8540140625,55.8383893285479L67.2193265625,81.1402851513454L67.40198281250001,66.1208199773516L67.5846390625,90.48311397007532L67.7672953125,-99.35954066685264L67.9499515625,121.11424030576434L68.3152640625,117.97179385593958L68.4979203125,54.17615134375437L68.6805765625,15.777345657348633L68.8632328125,102.99606554848806L69.0458890625,122.99513299124582L69.4112015625,103.8131685938154L69.59385781249999,97.2910417148045L69.7765140625,-115.66349479130332L69.95917031249999,127.47211687905447L70.1418265625,66.8336479323251L70.3244828125,-59.93923023768831L70.5071390625,77.93682636533465L71.0551078125,21.15342439923968L71.2377640625,100.49758223124914L71.4204203125,129.7206837109157L71.60307656250001,86.46385594776697L71.7857328125,99.48647832870483L72.1510453125,110.93341786520823L72.5163578125,-119.00829832894456L72.6990140625,65.81377295085363L72.8816703125,-20.340327603476368L73.0643265625,109.12284197126117L73.4296390625,134.34084953580583L73.6122953125,74.6721478189741L73.7949515625,127.22720820563181L73.9776078125,83.70763329097204L74.1602640625,123.13890756879535L74.3429203125,68.09988355636597L74.52557656249999,133.78975316456385L74.70823281249999,75.8833271435329L74.89088906250001,123.22481080463953L75.0735453125,85.89266906465802L75.43885781249999,95.04389722006663L75.62151406250001,130.28259577069963L75.8041703125,-35.604345866612L75.9868265625,108.26863963263376L76.3521390625,120.41412448883057L76.53479531250001,113.65188932418823L76.7174515625,108.33145952224731L76.9001078125,110.28963252476282L77.0827640625,117.10013825552805L77.2654203125,111.64633471625193L77.4480765625,74.61072063446045L77.6307328125,7.7182946205139356L77.81338906250001,72.45756891795568L78.3613578125,128.8714002881731L78.7266703125,128.7379376547677L78.9093265625,118.7977272442409L79.09198281249999,97.19233744485037L79.27463906249999,130.5938209124974L79.45729531250001,80.98160566602435L79.6399515625,203.18737414905004L79.8226078125,69.29713582992554L80.00526406249999,135.92746659687586L80.18792031250001,-99.52950995309007L80.5532328125,119.76447200775146L80.7358890625,85.49275527681623L81.10120156250001,89.13168627875193L81.2838578125,125.0976435797555L81.4665140625,83.4112241608756L81.6491703125,111.57646240506854L81.8318265625,121.9962967463902L82.0144828125,88.21214532852173L82.5624515625,105.38292503356934L82.7451078125,92.3523612703596L82.9277640625,78.75212185723441L83.1104203125,137.5493013177599L83.4757328125,93.57228204182215L83.65838906249999,115.09233161381312L83.84104531249999,85.4641603742327L84.02370156250001,85.7724519457136L84.3890140625,83.99020426613944L84.57167031249999,136.4949494770595L84.9369828125,107.20096819741384L85.4849515625,91.21428414753504L85.8502640625,86.50640753337316L86.0329203125,124.25852394104004L86.3982328125,86.70411239351544L86.5808890625,130.02607134410314L86.7635453125,112.18806736809866L86.94620156250001,78.63264553887504L87.3115140625,124.15981967108591L87.4941703125,89.85210003171649L87.6768265625,140.42857095173426L87.8594828125,119.4981986454555L88.0421390625,94.9048341342381L88.22479531249999,137.85388888631547L88.40745156249999,117.0644612993513L88.59010781250001,90.55885342189245L88.7727640625,141.4265626839229L88.9554203125,128.00030769620622L89.13807656249999,83.83193962914604L89.5033890625,100.43600688661847L89.6860453125,88.7666790144784L90.4166703125,91.38727590015955L90.5993265625,141.68130918911524L90.7819828125,139.30207995006018L90.9646390625,90.07914059502737L91.1472953125,102.29503113882883L91.3299515625,90.46726083755493L91.51260781250001,122.67116607938495L91.8779203125,110.0509465762547L92.0605765625,130.3129093306405L92.2432328125,112.33839062282019L92.4258890625,86.6956376348223L92.6085453125,148.67710396221705L92.79120156249999,131.78988790512085L92.97385781249999,127.82936055319651L93.3391703125,109.50088732583181L93.5218265625,135.02564559664046L93.70448281249999,97.57044206346784L93.88713906250001,23.571753093174536L94.0697953125,75.95619228907995L94.2524515625,189.2814507825034L94.6177640625,95.76312569209509L94.80042031250001,129.27015842710222L94.9830765625,109.82740259170532L95.1657328125,118.96603713716779L95.3483890625,64.89049836567472L95.7137015625,137.14617245537892L96.2616703125,112.68718917029246L96.6269828125,115.30766752788L96.8096390625,121.1905427660261L96.9922953125,92.55723708016531L97.1749515625,82.57023770468577L97.35760781249999,95.14117915289744L97.54026406249999,74.79129818507604L97.9055765625,94.93956286566599L98.0882328125,99.95072323935374L98.27088906249999,75.03949601309641L98.6362015625,122.68189287185669L98.8188578125,104.62695285252161L99.0015140625,57.01300273622785L99.1841703125,88.1956995555333L99.36682656250001,114.96079506192889L99.5494828125,143.00188994407654L99.7321390625,92.3365081378392L99.9147953125,135.1122007369995L100.0974515625,84.26406342642649L100.2801078125,105.46571690695627L100.4627640625,81.69804872785296L100.8280765625,180.33963213648113L101.0107328125,96.81055845533099L101.1933890625,133.03469957624162L101.3760453125,110.6891018322536L101.7413578125,111.3467845916748L101.92401406249999,83.73673193795341L102.28932656250001,97.23883008956909L102.4719828125,111.86890084402903L102.6546390625,124.22263956069946L102.83729531249999,130.69631808144703L103.01995156250001,125.87142460686819L103.2026078125,96.79135690416608L103.3852640625,139.97326009614125L103.5679203125,93.77754306793213L103.7505765625,138.55086370876856L103.93323281250001,80.65476444789343L104.6638578125,109.33260706492834L104.8465140625,134.05365596498763L105.0291703125,102.97102648871287L105.3944828125,101.92848300933838L105.5771390625,119.42835596629553L106.1251078125,131.5306373323713L106.3077640625,119.103974206107L106.67307656249999,92.42845630645752L106.85573281250001,122.8886947631836L107.0383890625,141.48516001020158L107.58635781250001,135.12363869803292L107.7690140625,120.17620897293091L107.9516703125,128.40576267242432L108.1343265625,104.87826204299927L108.3169828125,142.77370854786463L108.49963906250001,154.77568551472254L108.6822953125,144.83535657610213L108.8649515625,125.14615120206561L109.0476078125,117.25831399645124L109.2302640625,118.75559050696238L109.4129203125,183.33403699738636L109.5955765625,103.55931104932513L109.77823281250001,79.42186485018048L109.9608890625,110.11711488451276L110.1435453125,135.99976873397827L110.3262015625,134.78971542630876L110.5088578125,132.63766009466988L110.6915140625,120.66389281409128L110.8741703125,148.08483389445715L111.05682656249999,141.2469778060913L111.23948281249999,147.18304252624512L111.7874515625,144.00968987601144L111.97010781249999,-38.984974520547034L112.15276406250001,157.16624900272913L112.3354203125,73.42783989225116L112.8833890625,-72.81630011967249L113.06604531250001,152.61250335829598L113.4313578125,108.23391090120587L113.6140140625,125.92055450166974L113.7966703125,137.50237900870187L113.9793265625,142.34114027023315L114.1619828125,96.61466114861624L114.34463906250001,149.5744505269187L114.5272953125,154.08690394674028L114.8926078125,120.17789799826487L115.0752640625,118.84353835242136L115.2579203125,128.92690106800623L115.80588906249999,111.24013893944876L115.98854531250001,109.51031030927386L116.1712015625,99.99973460606165L116.3538578125,122.6471345084054L116.53651406249999,162.5141921383994L116.71917031250001,125.96215786252704L116.9018265625,126.70476600102015L117.0844828125,110.0939130101885L117.3767328125,126.21856376102991L117.55938906249999,135.12980215890065L117.74204531250001,29.261990547180176L117.9247015625,158.53560406821114L118.65532656250001,151.1779874733516L118.8379828125,158.27054561887468L119.0206390625,155.78271501404896L119.20329531249999,152.50936910084314L119.38595156250001,161.70231914520264L119.5686078125,158.29736260005407L119.7512640625,157.94400072097778L120.1165765625,152.49305667196L120.4818890625,102.75308295658655L120.6645453125,125.34898240225657L120.8472015625,158.5835042340415L121.0298578125,173.57135203906466L121.21251406249999,178.23494359425135L121.3951703125,-51.06212793077739L121.57782656250001,140.32637010301863L121.9431390625,106.51066058022634L122.12579531249999,112.07819182532175L122.30845156250001,129.06587525776453L122.4911078125,126.49550465175085L122.85642031249999,133.24087919507707L123.03907656250001,103.83986704690115L123.22173281250001,124.55170318058558L123.76970156249999,159.75439882278442L123.95235781250001,104.18010193961008L124.1350140625,131.18865415028162L124.3176703125,173.24341443606784L124.50032656249999,173.64821750777108L124.6829828125,150.0638382094247L124.8656390625,102.02449076516287L125.2309515625,160.01446427617753L125.4136078125,183.10330724716187L125.5962640625,168.79757380485535L125.77892031249999,108.55870750972204L125.9615765625,103.42407049451556L126.14423281250001,127.49235555103846L126.69220156249999,103.03192029680524L126.87485781250001,130.77620601654053L127.2401703125,109.73335054942541L127.42282656249999,126.36787952695575L127.60548281250001,113.09670373371668L127.9707953125,134.55642250605993L128.1534515625,148.99878920827592L128.3361078125,104.26203448431833L128.88407656249998,11.547166892460424L129.0667328125,128.71352086748396L129.2493890625,116.36138228007727L129.4320453125,-135.1490985325404L129.6147015625,136.0112955910819L129.7973578125,168.13128294263566L129.9800140625,148.29182839393616L130.1626703125,124.78624064581736L130.3453265625,173.96179839542933L130.7106390625,108.78749636241369L130.89329531250002,156.41953682899475L131.0759515625,138.09261928285872L131.2586078125,99.40401240757532L131.4412640625,90.64629752295359L131.6239203125,161.2917378289359L131.9892328125,130.36873606273107L132.5372015625,141.09065406663075L132.7198578125,89.41493879045761L133.2678265625,144.37263771465845L133.45048281249998,116.53505556924001L133.6331390625,170.85843658447266L133.8157953125,93.45019810540335L133.9984515625,165.37574182237898L134.1811078125,106.74244226728167L134.3637640625,139.42274154935564L134.5464203125,41.25765589305333L134.7290765625,99.6215707233974L134.9117328125,53.051023415156784L135.0943890625,134.0782801764352L135.2770453125,238.81506708690094L135.45970156250002,127.4374770436968L135.6423578125,133.69282681601388L135.8250140625,129.1593939236232L136.1903265625,127.03919301714215L136.3729828125,157.67040824890137L136.5556390625,133.65617200306482L136.9209515625,128.19122682298934L137.2862640625,120.58198990140643L137.4689203125,78.46780259268625L137.6515765625,138.76622925485884L137.8342328125,115.26639011928015L138.01688906249998,110.70759221485682L138.3822015625,95.63517461504254L138.5648578125,69.998259135655L138.9301703125,-33.1931881223406L139.1128265625,99.24402911322458L139.2954828125,-44.59034585952759L139.4781390625,115.1179633140564L139.8434515625,103.21054213387625L140.02610781250002,157.8063599722726L140.2087640625,75.39810276031494L140.3914203125,121.91792004449026L140.7567328125,124.86766944612775L140.9393890625,171.6826661314283L141.1220453125,116.77966792242869L141.4873578125,102.30688394818988L141.6700140625,165.96220401355197L141.8526703125,76.75098242078509L142.4006390625,108.59118420737131L143.1312640625,146.83731089319502L143.3139203125,123.89680583136423L143.4965765625,245.98179418700084L143.8618890625,134.46737827573503L144.0445453125,161.5665452139718L144.2272015625,118.60962315968104L144.4098578125,164.68716767856054L144.59251406250002,12.30758387701853L144.7751703125,137.02679984910145L144.9578265625,118.92493752070837L145.1404828125,109.76799038478308L145.3231390625,134.071494443076L145.5057953125,161.52845324788774L145.6884515625,124.117949622018L145.87110781250001,156.152507850102L146.2364203125,123.13096618652344L146.4190765625,70.11850588662284L146.6017328125,-19.84650993347168L146.7843890625,129.4970211982727L146.96704531249998,115.58069699151174L147.33235781250002,157.25238929476058L147.5150140625,107.66192395346506L147.6976703125,151.70300766399927L147.8803265625,117.55661957604543L148.24563906249998,131.0480798312596L148.42829531249998,-40.317911829267224L148.61095156250002,162.7198828288487L148.7936078125,108.42906740733557L148.9762640625,160.59550380706787L149.15892031250002,101.08296285356793L149.3415765625,67.35603087288993L149.5242328125,132.89169543130055L149.70688906249998,160.90388427461897L149.8895453125,115.52750750950403L150.07220156250003,146.1986518927983L150.2548578125,149.4614339896611L150.6201703125,165.94399513517106L150.8028265625,107.11909491675242L150.9854828125,-9.419741698673766L151.1681390625,119.74861887523107L151.3507953125,112.06773172106061L151.89876406250002,132.1995802606855L152.0814203125,166.1759249823434L152.2640765625,119.33492619650706L152.4467328125,143.95374461582728L152.6293890625,122.84246880667551L152.81204531249998,151.19320351736886L153.3600140625,104.83808101926532L153.5426703125,12.792185987745027L153.72532656250002,145.88246338708058L153.9079828125,-37.031898226056775L154.0906390625,168.48934149742126L154.27329531249998,112.2202181134905L154.8212640625,157.5724151475089L155.00392031250001,106.30702931540354L155.3692328125,114.31775052206858L155.5518890625,157.73450231552124L155.7345453125,122.22558934347971L155.9172015625,154.05950914110457L156.09985781249998,133.6105090550014L156.6478265625,144.52091635976518L156.8304828125,10.340462003435412L157.0131390625,157.64772493498666L157.1957953125,149.887927702495L157.56110781249998,144.95867024149214L157.9264203125,147.98458875928605L158.29173281250002,40.20998607363021L158.6570453125,69.9473809514727L158.83970156249998,112.74174172537668L159.0223578125,158.63635294778004L159.20501406250003,6.0801178387233215L159.3876703125,161.57982036045618L159.7529828125,125.218453339168L159.9356390625,164.27249714306421L160.1182953125,114.71316024235315L160.3009515625,226.73503937040056L160.4836078125,105.63488612856183L160.66626406249998,164.93499510628834L161.03157656250002,125.44635323115759L161.2142328125,152.96491701262337L161.3968890625,118.43713515145437L161.5795453125,143.89523618561878L161.94485781249998,156.58426124708993L162.12751406249998,119.28058106558665L162.31017031250002,137.2554701736995L162.4928265625,157.49818692888533L162.85813906250002,158.9305693081447L163.0407953125,163.37479499408178L163.2234515625,129.4122439793178L163.40610781249998,133.67587729862757L163.5887640625,111.59921979904175L163.77142031250003,163.23968778337752L163.9540765625,149.13348157065255L164.13673281250001,125.21679394585745L164.3193890625,147.98657410485401L164.6847015625,119.25705323900495L164.8673578125,158.05907668386186L165.23267031249998,166.73703697749545L165.7806390625,157.3557161603655L165.9632953125,120.83833653586252L166.1459515625,118.07393544060842L166.51126406249998,117.19733129228864L166.69392031249998,150.48145713124956L167.0592328125,115.26123414720807L167.2418890625,155.7523125580379L167.42454531250002,142.3685350758689L167.7898578125,139.82161821637834L167.97251406249998,151.64710685185022L168.1551703125,119.66556031363352L168.33782656250003,167.82419146810258L168.5204828125,147.98858908244543L168.70313906250001,122.42717599868774L168.8857953125,162.30325657980782L169.0684515625,142.91240123340063L169.2511078125,119.86640616825647L169.4337640625,163.51482112067086L169.6164203125,152.05103577886308L169.79907656249998,112.51799031666346L169.9817328125,164.14245700836182L170.16438906250002,132.82881627764021L170.3470453125,116.61912161963328L170.5297015625,123.36657040459768L170.7123578125,178.5543619905199L170.8950140625,148.50909038952418L171.26032656249998,165.646178483963L171.44298281250002,163.36916490963526L171.6256390625,117.34602478572302L171.99095156250002,116.45830862862722L172.1736078125,147.3217352117811L172.3562640625,131.24667365210396L172.53892031249998,133.75736536298479L172.7215765625,156.16151598521643L173.6348578125,151.87936265128L173.8175140625,118.69611903599329L174.0001703125,130.82394320624215L174.36548281249998,123.94288362775531L174.5481390625,48.79210158756803L174.73079531250002,108.73486988885061L174.9134515625,215.95699831417627L175.0961078125,148.6279444353921L175.64407656249998,135.09744398934498L175.82673281249998,152.04475378990173L176.00938906250002,97.02251631872996L176.1920453125,118.23931176321848L176.3747015625,162.88081434794836L176.55735781250002,116.73818308966501L176.7400140625,121.77728646142141L176.9226703125,144.31368480409895L177.10532656249998,116.46340533665247L177.2879828125,143.12871500423975L177.47063906250003,149.12093240874154L177.6532953125,119.48874602999005L178.0186078125,122.56546865190778L178.2012640625,99.15981490271433L178.3839203125,158.85542249679565L178.5665765625,121.70347309112549L178.7492328125,124.02209002631052L178.93188906249998,104.0245041847229L179.1145453125,145.32369232177734L179.29720156250002,148.40115574428015L179.4798578125,129.90881742749895L180.0278265625,140.93926405906677L180.21048281249998,164.39954444340296L180.39313906249998,118.44282449994769L180.57579531250002,162.42451081957137L180.7584515625,112.44776242119924L180.9411078125,134.6262651852199L181.3064203125,136.70918900626046L181.4890765625,201.20579184804643L181.67173281249998,124.8760849407741L181.8543890625,157.21583819389343L182.03704531250003,131.92183930533272L182.2197015625,157.30184514181954L182.40235781250001,134.2142318998064L182.5850140625,108.42337805884226L183.3156390625,149.86800016675676L183.49829531249998,158.0189697401864L183.6809515625,146.8315030166081L183.86360781250002,120.53143766948156L184.0462640625,163.4112275668553L184.4115765625,160.62618776730127L184.5942328125,105.77916445050921L184.95954531249998,117.89267635345459L185.14220156250002,151.88927456310816L185.3248578125,131.7101481301444L185.69017031250002,127.5751770564488L185.8728265625,162.29661900656563L186.0554828125,125.6950548035758L186.23813906249998,144.45505918775285L186.4207953125,119.38571548461914L186.60345156250003,168.96422430447168L186.7861078125,153.91166016033716L186.96876406250001,138.43449875286646L187.1514203125,155.3875275339399L187.3340765625,114.48114149911062L187.5167328125,144.48858782223292L187.6993890625,161.96316984721594L187.8820453125,144.85232090950012L188.06470156249998,118.83393757683889L188.43001406250002,139.4743309020996L188.6126703125,149.71785470417566L188.7953265625,128.63179574693953L188.9779828125,161.91147678239003L189.1606390625,174.2078627177647L189.34329531249998,165.35614023889815L189.70860781250002,138.3977550438472L189.8912640625,139.71649861335754L190.25657656250002,125.47583709444318L190.4392328125,102.81071724210467L190.80454531249998,155.74048938070024L191.16985781250003,152.51870318821497L191.7178265625,159.05943897792272L191.9004828125,164.79741362163L192.4484515625,161.8782889161791L192.8137640625,174.00586121422901L192.99642031250002,96.93726498740061L193.1790765625,149.55708616120472L193.5443890625,-53.15163006101334L193.7270453125,165.6832036972046L193.90970156249998,135.72860608782088L194.4576703125,150.3668552807399L194.6403265625,160.09581899642944L195.0056390625,166.44191684041704L195.1882953125,171.15708293233598L195.37095156249998,-70.84879302978516L195.5536078125,140.1079228264945L195.73626406250003,136.05935873304094L195.9189203125,147.383843932833L196.10157656250001,165.35399191720143L196.4668890625,128.978549684797L196.6495453125,124.407335962568L196.8322015625,118.1988936832973L197.19751406249998,175.1975130353655L197.3801703125,141.32042077609472L197.56282656250002,142.0049205166953L197.7454828125,127.05071987424579L197.85507656250002,45.398790427616674L198.0377328125,153.32291630336218L198.2203890625,164.83263128144398L198.40304531249998,64.81834438868933L198.5857015625,179.54211585862294L198.7683578125,146.99074551037378L198.95101406249998,122.33267947605677L199.31632656250002,171.16031282288685L199.4989828125,177.94111245019093L200.4122640625,174.58970097133093L200.9602328125,128.48570987156458L201.14288906250002,122.84516532080515L201.5082015625,173.29300362723214L201.69085781249998,187.26439894948686L202.05617031249997,-21.185818127223413L202.2388265625,157.3633612224034L202.6041390625,125.16721957070486L202.7867953125,131.79048054558888L203.1521078125,145.08177648271834L203.3347640625,130.98700823102678L203.70007656250002,122.30126953125L203.88273281250002,141.59980630874634L204.0653890625,184.1691118649074L204.2480453125,105.29515498025076L204.4307015625,175.05708687646046L204.6133578125,123.20196451459613L204.79601406249998,148.22576379776L204.9786703125,189.52830035345897L205.16132656250002,188.464599609375L205.5266390625,120.62566750390188L205.70929531250002,145.19917855943953L205.8919515625,175.18957165309362L206.25726406249998,182.93077479090007L206.4399203125,125.48908260890417L206.62257656249997,120.15069580078125L206.8052328125,143.182423046657L206.98788906250002,178.41678050586157L207.1705453125,186.4725275720869L207.53585781249998,147.79112127849035L207.9011703125,128.8494429588318L208.08382656249998,142.8073112624032L208.26648281250002,126.36945002419607L208.44913906250002,118.43793521608625L208.6317953125,150.92891550064087L208.8144515625,165.2178624016898L208.9971078125,121.70661408560618L209.1797640625,149.12491791588917L209.36242031249998,76.79750469752722L209.72773281250002,142.491745029177L209.9103890625,130.45564678737097L210.27570156250002,149.09078182492937L210.6410140625,163.98282929829188L210.82367031249998,138.5377811704363L211.0063265625,188.0605077062334L211.18898281249997,62.325994900294724L211.55429531250002,170.5887851715088L211.7369515625,155.26073210580006L211.9196078125,117.79127556937082L212.10226406249998,108.15959378651209L212.2849203125,176.38732767105103L212.4675765625,117.3040362085615L212.65023281249998,147.14662476948328L213.01554531250002,134.78304822104317L213.1982015625,154.38922466550554L213.7461703125,145.359472990036L213.92882656249998,162.23393246105738L214.6594515625,180.81761148997717L214.84210781250002,125.04771362032209L215.0247640625,156.1387289592198L215.2074203125,68.19894341060095L215.39007656249998,116.35160371235438L215.5727328125,78.81971250261579L215.75538906249997,149.27861922127857L215.9380453125,254.90813010079518L216.4860140625,143.75660276412964L216.66867031249998,149.03174001829964L216.8513265625,140.6593747820173L217.0339828125,174.639645746776L217.21663906249998,146.77102405684334L217.58195156250002,141.8063563278743L217.7646078125,167.43805657114302L217.9472640625,135.79515961238317L218.1299203125,97.42168930598669L218.3125765625,150.42023737089974L218.6778890625,128.0644313948495L218.86054531250002,173.8540711743491L219.0432015625,113.4031581197466L219.2258578125,87.68137652533396L219.40851406250002,126.08095264434814L219.5911703125,-14.58655909129552L219.7738265625,115.46845088686261L219.95648281249998,-28.25059625080653L220.1391390625,130.67806475503102L220.32179531249997,175.03130701610021L221.0524203125,136.13077190944128L221.4177328125,138.11091705730982L221.6003890625,186.97194569451466L221.78304531249998,131.1873503412519L221.96570156250002,191.56687985147747L222.14835781250002,119.86948789869037L222.6963265625,147.90289327076502L223.06163906249998,124.70158195495605L223.2442953125,101.13188532420568L223.6096078125,134.4983733722142L223.7922640625,161.51036289760046L224.1575765625,255.8054322174617L224.3402328125,132.50286402021135L224.7055453125,174.4968786580222L225.4361703125,148.05320170947485L225.6188265625,128.04706702913558L225.80148281249998,124.64738498415265L225.9841390625,145.84721609524317L226.1667953125,174.93795132637024L226.8974203125,133.648823261261L227.0800765625,87.35995796748571L227.2627328125,-3.367608342851917L227.4453890625,141.54000888551985L227.8107015625,128.21075432641163L227.99335781250002,172.04773265974862L228.1760140625,125.03254202433996L228.54132656250002,131.13934646333968L228.7239828125,133.89912496294295L228.9066390625,145.24552304404122L229.2719515625,179.03466745785303L229.6372640625,173.37458058765955L229.81992031250002,119.40651716504779L230.0025765625,94.05021694728308L230.36788906249998,175.67568499701366L230.5505453125,129.1149458885193L230.7332015625,160.64156678744726L230.91585781249998,167.91246526581898L231.09851406250002,-42.90066862106323L231.28117031250002,180.4735836982727L231.4638265625,122.98230232511249L231.6464828125,10.78778702872141L231.8291390625,135.81993198394775L232.0117953125,125.04972859791346L232.19445156249998,134.70280470166887L232.3771078125,101.3549255643572L232.55976406250002,143.02909214156014L232.9250765625,132.80220672062464L233.10773281250002,158.377176455089L233.2903890625,135.045706476484L233.65570156249998,177.04567715099878L233.8383578125,-62.9939955302647L234.02101406249997,117.41731943402972L234.2036703125,28.15473072869438L234.5689828125,-12.595879759107312L234.7516390625,180.47195393698559L234.93429531249998,126.10608060019358L235.1169515625,173.48107807976857L235.66492031250002,122.63062947137014L235.84757656250002,182.23181462287903L236.0302328125,130.27717311041698L236.9435140625,174.54543072836742L237.3088265625,157.6233377797263L237.4914828125,30.983077730451324L237.67413906250002,179.98941125188554L237.8567953125,166.36659223692757L238.0394515625,150.68615514891488L238.4047640625,154.8161184106554L238.58742031249997,161.27987020356312L238.7700765625,125.9811223575047L238.95273281250002,52.96550539561681L239.1353890625,123.1136018208095L239.3180453125,84.1737153870719L239.50070156249998,127.12871135984149L239.6833578125,170.64871593884058L239.8660140625,23.537142889840265L240.23132656250002,166.69048506872994L240.41398281250002,137.25961865697587L240.5966390625,176.25199822017126L240.7792953125,128.05829756600514L240.9619515625,236.77060563223705L241.1446078125,120.05341386795044L241.32726406249998,177.94091984203882L241.8752328125,166.79256738935197L242.0578890625,133.2952835900443L242.4232015625,136.71938242231096L242.6058578125,168.51860312053134L242.78851406249998,135.4846456391471L242.9711703125,147.996545280729L243.15382656249997,171.42805297034127L243.3364828125,132.43139157976424L243.51913906250002,169.888373034341L243.7017953125,175.55542343003407L243.8844515625,140.21843545777455L244.06710781249998,149.83636798177446L244.4324203125,174.4823885985783L244.61507656249998,164.1716889994485L244.98038906250002,162.91924708230152L245.1630453125,129.93391575132097L245.5283578125,169.48551086017062L245.7110140625,129.65519693919592L245.89367031249998,178.21726809229168L246.0763265625,220.67431272779191L246.25898281250002,139.0686685017177L246.4416390625,170.39872537340437L246.6242953125,133.39161729812622L246.80695156250002,129.0057222502572L246.9896078125,172.31381341389246L247.35492031249998,162.06208154133387L247.5375765625,168.57490396499634L247.72023281249997,127.67773348944529L248.08554531250002,156.00945925712585L248.2682015625,121.86603437151227L248.63351406249998,164.31876754760742L248.8161703125,132.01452827453613L248.9988265625,176.86221047810145L249.18148281249998,161.85913181304932L249.36413906250002,134.988812991551L249.54679531250002,173.91296482086182L249.7294515625,155.06142711639404L250.46007656249998,125.14046185357229L250.6427328125,176.41387796401978L250.82538906250002,147.54470137187414L251.1907015625,133.0492192677089L251.37335781250002,188.29700088500977L251.5560140625,160.24135667937142L251.92132656249998,176.2299075467246L252.1039828125,172.85252359935214L252.28663906249997,129.02160501480103L252.65195156250002,128.0260282925197L253.0172640625,141.9984014715467L253.3825765625,169.19776909691944L253.5652328125,151.5732638495309L253.74788906249998,124.38123014995031L253.93054531250002,183.6785240854536L254.2958578125,162.7132600716182L254.4785140625,129.52206025804793L254.6611703125,140.0490143639701L254.8438265625,167.8287399836949L255.02648281249998,136.4090166091919L255.2091390625,63.56553207124982L255.7571078125,164.2088771888188L255.93976406250002,141.78875490597315L256.4877328125,169.46005695206776L256.67038906249996,111.73481593813214L256.8530453125,135.5913209233965L257.2183578125,131.31100477491105L257.4010140625,137.79726208959306L257.9489828125,157.90057499068124L258.13163906249997,163.00891358511788L258.3142953125,132.65043149675643L258.6796078125,136.28411763054982L258.8622640625,113.07738365445819L259.0449203125,171.81399525914873L259.2275765625,135.8216210092817L259.4102328125,133.41090774536133L259.5928890625,120.2699350629534L259.7755453125,161.06853461265564L260.14085781250003,143.88581320217676L260.6888265625,155.42298224994116L260.8714828125,175.83323846544536L261.4194515625,126.29590334211078L261.60210781250004,150.53134264264787L261.7847640625,121.04635334014893L261.9674203125,149.66817661694117L262.1500765625,214.0626971381051L262.5153890625,169.99534463882446L262.69804531249997,142.4624834060669L262.8807015625,170.47495375360762L263.0633578125,147.45707947867257L263.2460140625,121.5307480267116L263.4286703125,66.0621485710144L263.6113265625,137.15987726620264L263.7939828125,150.7938527379717L263.9766390625,165.01689801897322L264.1592953125,171.2228363922664L264.3419515625,159.47839134080067L264.5246078125,133.79209409441268L264.70726406250003,174.1328640665327L264.8899203125,132.06733254023962L265.0725765625,171.9424648966108L265.2552328125,118.83894538879395L265.4378890625,160.2386453492301L265.80320156249996,163.77673857552662L265.9858578125,145.27908131054468L266.5338265625,170.49299965585982L266.7164828125,138.4621898787362L267.0817953125,131.72549751826696L267.26445156249997,178.1922586645399L267.4471078125,167.2371959005083L267.6297640625,150.0095375265394L267.8124203125,167.06138910566057L267.9950765625,127.78067513874598L268.5430453125,156.492342710495L268.7257015625,131.16977855137415L269.27367031250003,160.31555526597157L269.4563265625,140.36265451567513L269.6389828125,172.07293469565255L269.8216390625,179.97578052112036L270.0042953125,175.97667227472576L270.1869515625,157.681090593338L270.5522640625,151.28319597244263L270.73492031250004,208.333197253091L271.1002328125,115.82249430247717L271.2828890625,146.04157253674097L271.6482015625,168.0787157331194L272.0135140625,151.75353026390076L272.1961703125,174.47883275577001L272.3788265625,170.07835875238692L272.5614828125,171.80635019711085L272.9267953125,158.80211448669434L273.1094515625,171.65392306872775L273.4747640625,181.68953377859935L273.6574203125,109.16029684884207L273.84007656250003,161.08145417485918L274.0227328125,175.80181370462688" style="fill: none;" fill="none"></path></g></g></g></g></g></g><g transform="translate(37, 174)" clip-path="url(#clip_1)"><clipPath id="clip_1"><rect width="292" height="26"></rect></clipPath><g><g><line x1="0" y1="0" x2="0" y2="5" style="visibility: inherit;" fill="rgb(0, 0, 0)" stroke="rgb(204, 204, 204)" stroke-width="1px"></line><line x1="36.53125" y1="0" x2="36.53125" y2="5" style="visibility: inherit;" fill="rgb(0, 0, 0)" stroke="rgb(204, 204, 204)" stroke-width="1px"></line><line x1="73.0625" y1="0" x2="73.0625" y2="5" style="visibility: inherit;" fill="rgb(0, 0, 0)" stroke="rgb(204, 204, 204)" stroke-width="1px"></line><line x1="109.59375" y1="0" x2="109.59375" y2="5" style="visibility: inherit;" fill="rgb(0, 0, 0)" stroke="rgb(204, 204, 204)" stroke-width="1px"></line><line x1="146.125" y1="0" x2="146.125" y2="5" style="visibility: inherit;" fill="rgb(0, 0, 0)" stroke="rgb(204, 204, 204)" stroke-width="1px"></line><line x1="182.65625" y1="0" x2="182.65625" y2="5" style="visibility: inherit;" fill="rgb(0, 0, 0)" stroke="rgb(204, 204, 204)" stroke-width="1px"></line><line x1="219.1875" y1="0" x2="219.1875" y2="5" style="visibility: inherit;" fill="rgb(0, 0, 0)" stroke="rgb(204, 204, 204)" stroke-width="1px"></line><line x1="255.71875" y1="0" x2="255.71875" y2="5" style="visibility: inherit;" fill="rgb(0, 0, 0)" stroke="rgb(204, 204, 204)" stroke-width="1px"></line><line x1="292.25" y1="0" x2="292.25" y2="5" style="visibility: inherit;" fill="rgb(0, 0, 0)" stroke="rgb(204, 204, 204)" stroke-width="1px"></line></g><g transform="translate(0, 8)"><text x="0" y="0" dx="0em" dy="0.95em" style="text-anchor: middle; visibility: hidden; font-family: Roboto, sans-serif; font-size: 12px; font-weight: 200;" fill="rgb(33, 33, 33)" stroke="none" stroke-width="1px">-20k</text><text x="36.53125" y="0" dx="0em" dy="0.95em" style="text-anchor: middle; visibility: inherit; font-family: Roboto, sans-serif; font-size: 12px; font-weight: 200;" fill="rgb(33, 33, 33)" stroke="none" stroke-width="1px">0</text><text x="73.0625" y="0" dx="0em" dy="0.95em" style="text-anchor: middle; visibility: inherit; font-family: Roboto, sans-serif; font-size: 12px; font-weight: 200;" fill="rgb(33, 33, 33)" stroke="none" stroke-width="1px">20k</text><text x="109.59375" y="0" dx="0em" dy="0.95em" style="text-anchor: middle; visibility: inherit; font-family: Roboto, sans-serif; font-size: 12px; font-weight: 200;" fill="rgb(33, 33, 33)" stroke="none" stroke-width="1px">40k</text><text x="146.125" y="0" dx="0em" dy="0.95em" style="text-anchor: middle; visibility: inherit; font-family: Roboto, sans-serif; font-size: 12px; font-weight: 200;" fill="rgb(33, 33, 33)" stroke="none" stroke-width="1px">60k</text><text x="182.65625" y="0" dx="0em" dy="0.95em" style="text-anchor: middle; visibility: inherit; font-family: Roboto, sans-serif; font-size: 12px; font-weight: 200;" fill="rgb(33, 33, 33)" stroke="none" stroke-width="1px">80k</text><text x="219.1875" y="0" dx="0em" dy="0.95em" style="text-anchor: middle; visibility: inherit; font-family: Roboto, sans-serif; font-size: 12px; font-weight: 200;" fill="rgb(33, 33, 33)" stroke="none" stroke-width="1px">100k</text><text x="255.71875" y="0" dx="0em" dy="0.95em" style="text-anchor: middle; visibility: inherit; font-family: Roboto, sans-serif; font-size: 12px; font-weight: 200;" fill="rgb(33, 33, 33)" stroke="none" stroke-width="1px">120k</text><text x="292.25" y="0" dx="0em" dy="0.95em" style="text-anchor: middle; visibility: hidden; font-family: Roboto, sans-serif; font-size: 12px; font-weight: 200;" fill="rgb(33, 33, 33)" stroke="none" stroke-width="1px">140k</text></g><line x1="0" y1="0" x2="292.25" y2="0" fill="rgb(0, 0, 0)" stroke="rgb(204, 204, 204)" stroke-width="1px"></line></g></g></g></g></svg>