<svg viewBox="0 0 330 200" xmlns="http://www.w3.org/2000/svg"><g><g><g><g><g><line x1="47" y1="174" x2="42" y2="174" style="visibility: inherit;" fill="rgb(0, 0, 0)" stroke="rgb(204, 204, 204)" stroke-width="1px"></line><line x1="47" y1="154.66666666666666" x2="42" y2="154.66666666666666" style="visibility: inherit;" fill="rgb(0, 0, 0)" stroke="rgb(204, 204, 204)" stroke-width="1px"></line><line x1="47" y1="135.33333333333337" x2="42" y2="135.33333333333337" style="visibility: inherit;" fill="rgb(0, 0, 0)" stroke="rgb(204, 204, 204)" stroke-width="1px"></line><line x1="47" y1="116.00000000000003" x2="42" y2="116.00000000000003" style="visibility: inherit;" fill="rgb(0, 0, 0)" stroke="rgb(204, 204, 204)" stroke-width="1px"></line><line x1="47" y1="96.66666666666667" x2="42" y2="96.66666666666667" style="visibility: inherit;" fill="rgb(0, 0, 0)" stroke="rgb(204, 204, 204)" stroke-width="1px"></line><line x1="47" y1="77.3333333333334" x2="42" y2="77.3333333333334" style="visibility: inherit;" fill="rgb(0, 0, 0)" stroke="rgb(204, 204, 204)" stroke-width="1px"></line><line x1="47" y1="57.999999999999964" x2="42" y2="57.999999999999964" style="visibility: inherit;" fill="rgb(0, 0, 0)" stroke="rgb(204, 204, 204)" stroke-width="1px"></line><line x1="47" y1="38.6666666666667" x2="42" y2="38.6666666666667" style="visibility: inherit;" fill="rgb(0, 0, 0)" stroke="rgb(204, 204, 204)" stroke-width="1px"></line><line x1="47" y1="19.333333333333265" x2="42" y2="19.333333333333265" style="visibility: inherit;" fill="rgb(0, 0, 0)" stroke="rgb(204, 204, 204)" stroke-width="1px"></line><line x1="47" y1="0" x2="42" y2="0" style="visibility: inherit;" fill="rgb(0, 0, 0)" stroke="rgb(204, 204, 204)" stroke-width="1px"></line></g><g transform="translate(37, 0)"><text x="0" y="174" dx="0em" dy="0.3em" style="text-anchor: end; visibility: hidden; font-family: Roboto, sans-serif; font-size: 12px; font-weight: 200;" fill="rgb(33, 33, 33)" stroke="none" stroke-width="1px">1.8</text><text x="0" y="154.66666666666666" dx="0em" dy="0.3em" style="text-anchor: end; visibility: inherit; font-family: Roboto, sans-serif; font-size: 12px; font-weight: 200;" fill="rgb(33, 33, 33)" stroke="none" stroke-width="1px">1.85</text><text x="0" y="135.33333333333337" dx="0em" dy="0.3em" style="text-anchor: end; visibility: hidden; font-family: Roboto, sans-serif; font-size: 12px; font-weight: 200;" fill="rgb(33, 33, 33)" stroke="none" stroke-width="1px">1.9</text><text x="0" y="116.00000000000003" dx="0em" dy="0.3em" style="text-anchor: end; visibility: inherit; font-family: Roboto, sans-serif; font-size: 12px; font-weight: 200;" fill="rgb(33, 33, 33)" stroke="none" stroke-width="1px">1.95</text><text x="0" y="96.66666666666667" dx="0em" dy="0.3em" style="text-anchor: end; visibility: hidden; font-family: Roboto, sans-serif; font-size: 12px; font-weight: 200;" fill="rgb(33, 33, 33)" stroke="none" stroke-width="1px">2</text><text x="0" y="77.3333333333334" dx="0em" dy="0.3em" style="text-anchor: end; visibility: inherit; font-family: Roboto, sans-serif; font-size: 12px; font-weight: 200;" fill="rgb(33, 33, 33)" stroke="none" stroke-width="1px">2.05</text><text x="0" y="57.999999999999964" dx="0em" dy="0.3em" style="text-anchor: end; visibility: hidden; font-family: Roboto, sans-serif; font-size: 12px; font-weight: 200;" fill="rgb(33, 33, 33)" stroke="none" stroke-width="1px">2.1</text><text x="0" y="38.6666666666667" dx="0em" dy="0.3em" style="text-anchor: end; visibility: inherit; font-family: Roboto, sans-serif; font-size: 12px; font-weight: 200;" fill="rgb(33, 33, 33)" stroke="none" stroke-width="1px">2.15</text><text x="0" y="19.333333333333265" dx="0em" dy="0.3em" style="text-anchor: end; visibility: hidden; font-family: Roboto, sans-serif; font-size: 12px; font-weight: 200;" fill="rgb(33, 33, 33)" stroke="none" stroke-width="1px">2.2</text><text x="0" y="0" dx="0em" dy="0.3em" style="text-anchor: end; visibility: hidden; font-family: Roboto, sans-serif; font-size: 12px; font-weight: 200;" fill="rgb(33, 33, 33)" stroke="none" stroke-width="1px">2.25</text></g><line x1="47" y1="0" x2="47" y2="174" fill="rgb(0, 0, 0)" stroke="rgb(204, 204, 204)" stroke-width="1px"></line></g></g><g transform="translate(47, 0)" clip-path="url(#clip_0)"><clipPath id="clip_0"><rect width="283" height="174"></rect></clipPath><g><g><g><line x1="0" y1="0" x2="0" y2="174" fill="rgb(0, 0, 0)" stroke="rgb(66, 66, 66)" stroke-width="1px" opacity="0.25"></line><line x1="25.727272727272727" y1="0" x2="25.727272727272727" y2="174" fill="rgb(0, 0, 0)" stroke="rgb(66, 66, 66)" stroke-width="1px" opacity="0.25"></line><line x1="51.45454545454545" y1="0" x2="51.45454545454545" y2="174" fill="rgb(0, 0, 0)" stroke="rgb(66, 66, 66)" stroke-width="1px" opacity="0.25"></line><line x1="77.18181818181817" y1="0" x2="77.18181818181817" y2="174" fill="rgb(0, 0, 0)" stroke="rgb(66, 66, 66)" stroke-width="1px" opacity="0.25"></line><line x1="102.9090909090909" y1="0" x2="102.9090909090909" y2="174" fill="rgb(0, 0, 0)" stroke="rgb(66, 66, 66)" stroke-width="1px" opacity="0.25"></line><line x1="128.63636363636363" y1="0" x2="128.63636363636363" y2="174" fill="rgb(0, 0, 0)" stroke="rgb(66, 66, 66)" stroke-width="1px" opacity="0.25"></line><line x1="154.36363636363635" y1="0" x2="154.36363636363635" y2="174" fill="rgb(0, 0, 0)" stroke="rgb(66, 66, 66)" stroke-width="1px" opacity="0.25"></line><line x1="180.0909090909091" y1="0" x2="180.0909090909091" y2="174" fill="rgb(0, 0, 0)" stroke="rgb(66, 66, 66)" stroke-width="1px" opacity="0.25"></line><line x1="205.8181818181818" y1="0" x2="205.8181818181818" y2="174" fill="rgb(0, 0, 0)" stroke="rgb(66, 66, 66)" stroke-width="1px" opacity="0.25"></line><line x1="231.54545454545456" y1="0" x2="231.54545454545456" y2="174" fill="rgb(0, 0, 0)" stroke="rgb(66, 66, 66)" stroke-width="1px" opacity="0.25"></line><line x1="257.27272727272725" y1="0" x2="257.27272727272725" y2="174" fill="rgb(0, 0, 0)" stroke="rgb(66, 66, 66)" stroke-width="1px" opacity="0.25"></line><line x1="283" y1="0" x2="283" y2="174" fill="rgb(0, 0, 0)" stroke="rgb(66, 66, 66)" stroke-width="1px" opacity="0.25"></line></g><g><line x1="0" y1="174" x2="283" y2="174" fill="rgb(0, 0, 0)" stroke="rgb(66, 66, 66)" stroke-width="1px" opacity="0.25"></line><line x1="0" y1="154.66666666666666" x2="283" y2="154.66666666666666" fill="rgb(0, 0, 0)" stroke="rgb(66, 66, 66)" stroke-width="1px" opacity="0.25"></line><line x1="0" y1="135.33333333333337" x2="283" y2="135.33333333333337" fill="rgb(0, 0, 0)" stroke="rgb(66, 66, 66)" stroke-width="1px" opacity="0.25"></line><line x1="0" y1="116.00000000000003" x2="283" y2="116.00000000000003" fill="rgb(0, 0, 0)" stroke="rgb(66, 66, 66)" stroke-width="1px" opacity="0.25"></line><line x1="0" y1="96.66666666666667" x2="283" y2="96.66666666666667" fill="rgb(0, 0, 0)" stroke="rgb(66, 66, 66)" stroke-width="1px" opacity="0.25"></line><line x1="0" y1="77.3333333333334" x2="283" y2="77.3333333333334" fill="rgb(0, 0, 0)" stroke="rgb(66, 66, 66)" stroke-width="1px" opacity="0.25"></line><line x1="0" y1="57.999999999999964" x2="283" y2="57.999999999999964" fill="rgb(0, 0, 0)" stroke="rgb(66, 66, 66)" stroke-width="1px" opacity="0.25"></line><line x1="0" y1="38.6666666666667" x2="283" y2="38.6666666666667" fill="rgb(0, 0, 0)" stroke="rgb(66, 66, 66)" stroke-width="1px" opacity="0.25"></line><line x1="0" y1="19.333333333333265" x2="283" y2="19.333333333333265" fill="rgb(0, 0, 0)" stroke="rgb(66, 66, 66)" stroke-width="1px" opacity="0.25"></line><line x1="0" y1="0" x2="283" y2="0" fill="rgb(0, 0, 0)" stroke="rgb(66, 66, 66)" stroke-width="1px" opacity="0.25"></line></g></g></g><g><g><line x1="0" y1="870.0000000000001" x2="283" y2="870.0000000000001" fill="rgb(0, 0, 0)" stroke="rgb(153, 153, 153)" stroke-width="1.5px"></line></g></g><g><g><line x1="25.727272727272727" y1="0" x2="25.727272727272727" y2="174" fill="rgb(0, 0, 0)" stroke="rgb(153, 153, 153)" stroke-width="1.5px"></line></g></g><g><g><g><g><g><path stroke="rgb(255, 112, 67)" stroke-width="2px" d="M33.45831818181818,-3.226522076054099L34.74468181818182,7.180244763619566L36.031045454545456,19.930878590552847L37.317409090909095,21.445958475840737L38.60377272727273,25.598164475876448L39.89013636363636,45.439541742836234L41.1765,52.09469165933101L42.462863636363636,59.36828626986477L43.74922727272727,62.13166920557855L45.03559090909091,59.22365767331498L46.321954545454545,61.73267837941046L47.608318181818184,58.43670652350674L48.894681818181816,67.84158870897912L50.181045454545455,91.85334801974531L51.46740909090909,114.13815023999918L52.753772727272725,130.88029996523804L54.040136363636364,130.2133165930806L55.3265,115.87111784868532L56.61286363636364,129.15494304887298L57.89922727272727,141.52635663280896L59.18559090909091,138.1232798010716L60.47195454545455,136.4704163997275L61.758318181818176,143.88821240166658L63.044681818181814,124.75444217261087L64.33104545454545,105.3315509209959L65.61740909090909,110.49870195484108L66.90377272727272,88.73093578083054L68.19013636363636,87.32508130533469L69.4765,85.76718137564147L70.76286363636365,78.02055807409621L72.04922727272728,77.43028019399478L73.3355909090909,84.82245647392365L74.62195454545454,85.15257066650236L75.90831818181817,87.31738901127507L77.19468181818182,89.36035197733256L78.48104545454545,96.8546908042638L79.7674090909091,91.16343042736676L81.05377272727272,92.34191176207673L82.34013636363636,91.46962688503645L83.6265,87.65291336833285L84.91286363636364,90.86635536161457L86.19922727272727,81.13972695372965L87.48559090909092,91.27293987110471L88.77195454545455,94.1643433752008L90.0583181818182,89.28187527151604L91.34468181818181,100.06060567238113L92.63104545454546,98.43992404185353L93.91740909090909,153.65228628348711L95.20377272727274,143.03590187567642L96.49013636363637,133.57556181632026L97.7765,129.66443600743457L99.06286363636363,119.28592814498668L100.34922727272726,119.47510735289376L101.63559090909091,117.22294689871542L102.92195454545454,120.51955597593992L104.20831818181819,135.20803167618112L105.49468181818182,132.5132244876829L106.78104545454546,131.84023996503L108.06740909090908,145.49610157992947L109.35377272727273,134.37824452034536L110.64013636363636,135.587491298389L111.9265,127.77066697955422L113.21286363636364,134.8330964462775L114.49922727272728,132.88418836296506L115.78559090909091,131.3175847544327L117.07195454545455,143.30584524556326L118.35831818181818,145.19698459993396L119.64468181818182,139.9234784389969L120.93104545454545,128.83070131612436L122.21740909090909,134.68173492236505L123.50377272727273,141.08141415288193L124.79013636363636,145.37692796967522L126.0765,143.7722148008074L127.36286363636363,139.5792303188796L128.64922727272727,129.13788217529586L129.9355909090909,138.71353120540536L131.22195454545454,135.22229495208435L132.50831818181817,120.76988527711812L133.79468181818183,127.34400488656706L135.08104545454546,125.93885074688161L136.3674090909091,132.93275942782466L137.65377272727272,138.26066337255577L138.94013636363638,140.37832070724926L140.2265,150.31072693667866L141.51286363636365,136.72460093658398L142.79922727272728,140.81095100181037L144.0855909090909,149.8522671902383L145.37195454545454,145.42774634624743L146.6583181818182,143.45323759554964L147.8289090909091,118.56323233190659L149.11527272727272,101.34686273898768L150.40163636363636,96.73154903987697L151.68800000000002,80.5286132109541L152.97436363636365,90.68393135939324L154.26072727272728,87.05523465995567L155.54709090909088,87.47906034146497L156.83345454545454,91.99331338179952L158.11981818181818,96.28575612091744L159.4061818181818,93.29781068752445L160.69254545454544,92.76404356990402L161.9789090909091,110.0133474828848L163.26527272727273,112.8471872108409L164.55163636363636,116.48014956100164L165.838,114.85414528876574L167.12436363636365,106.71361428914491L168.41072727272729,106.11386765490776L169.69709090909092,98.20302416553578L170.98345454545455,104.51268694601744L172.26981818181815,122.97467530847963L173.5561818181818,141.4176202282193L174.84254545454544,155.3015717147717L176.12890909090908,152.1224643555639L177.4152727272727,135.51039674484875L178.70163636363637,147.473771921421L179.988,158.66876416501896L181.27436363636363,154.0254975940635L182.56072727272726,150.9229622832447L183.84709090909092,157.6512168179856L185.13345454545455,137.4486186304236L186.4198181818182,116.67026294461152L187.70618181818182,121.3054916850205L188.99254545454548,107.82164289105793L190.2789090909091,108.3732327235671L191.5652727272727,106.44237822768677L192.85163636363635,96.39967656022864L194.138,95.44696841172308L195.42436363636364,101.386157553585L196.71072727272727,100.92307941984632L197.9970909090909,101.81608202182156L199.28345454545453,102.99543318424364L200.5698181818182,109.30290629828224L201.85618181818182,103.1829324386373L203.14254545454546,103.0507659329089L204.4289090909091,101.39046983399666L205.71527272727275,97.12572985775479L207.00163636363638,99.69018896750926L208.28799999999998,89.55696845252697L209.5743636363636,98.93957645217212L210.86072727272727,101.45967787813915L212.1470909090909,96.29754821247928L213.43345454545454,106.65433637174213L214.71981818181817,104.4744050813053L216.00618181818183,160.72510299954817L217.29254545454546,152.67630770528712L218.5789090909091,144.39672776892425L219.86527272727272,140.3040147751648L221.15163636363636,129.71376440505662L222.43800000000002,129.67268384444998L223.72436363636365,126.98072670071303L225.01072727272728,129.86807647249483L226.29709090909088,143.96980688711832L227.58345454545454,140.56900393411016L228.86981818181818,139.54008832441474L230.1561818181818,152.86721095363325L231.44254545454544,141.49987648876524L232.7289090909091,142.41202738455146L234.01527272727273,134.2185189718278L235.30163636363636,140.92887940372657L236.588,138.53007226605595L237.87436363636365,136.75605147730943L239.16072727272729,148.45241043757372L240.44709090909092,149.93194532667187L241.73345454545455,144.55016489192596L243.01981818181815,133.2012057822829L244.3061818181818,138.86038258802208L245.59254545454544,144.95981475789128L246.87890909090908,148.83298266576986L248.1652727272727,147.13359214055885L249.45163636363637,142.82773218863213L250.738,132.3132196405311L252.02436363636363,141.625432292945L253.31072727272726,138.0831835192403L254.59709090909092,123.22591782740514L255.88345454545455,129.60688718834567L257.1698181818182,128.0573382100208L258.4561818181818,134.89511828347506L259.74254545454545,140.15477065677123L261.0289090909091,142.08585606675155L262.3152727272727,151.83242082592338L263.6016363636364,138.17413600283763L264.88800000000003,142.16327892937994L266.17436363636364,151.00144267399352L267.4607272727273,146.4015978991146L268.7470909090909,144.27934057032" style="fill: none;" fill="none"></path></g></g></g></g><g opacity="0.2"><g><g><g><path stroke="rgb(255, 112, 67)" stroke-width="2px" d="M27.026500000000002,-6.592769622802734L28.312863636363637,7.990531921386725L29.599227272727273,-11.255849202473941L30.88559090909091,9.204101562499993L32.17195454545455,-13.785041173299149L33.45831818181818,1.393337249755853L34.74468181818182,22.353410720825202L36.031045454545456,38.73558680216472L37.317409090909095,23.695675532023117L38.60377272727273,31.788813273111977L39.89013636363636,75.09363174438478L41.1765,62.05568631490072L42.462863636363636,70.26442845662436L43.74922727272727,66.27349535624187L45.03559090909091,54.863691329956055L46.321954545454545,65.49514770507812L47.608318181818184,53.49358558654786L48.894681818181816,81.94747924804688L50.181045454545455,127.86879221598308L51.46740909090909,147.56413141886395L52.753772727272725,155.99297364552817L54.040136363636364,129.21285470326742L55.3265,94.35798962910971L56.61286363636364,149.08058643341064L57.89922727272727,160.08342425028485L59.18559090909091,133.01867326100668L60.47195454545455,133.9911238352458L61.758318181818176,155.01489957173666L63.044681818181814,96.05379740397137L64.33104545454545,76.1972204844157L65.61740909090909,118.24942747751874L66.90377272727272,56.079289118448905L68.19013636363636,85.21629969278973L69.4765,83.43033154805501L70.76286363636365,66.4006233215332L72.04922727272728,76.54486338297527L73.3355909090909,95.91072082519533L74.62195454545454,85.64774195353192L75.90831818181817,90.56461652119955L77.19468181818182,92.4247964223226L78.48104545454545,108.09619903564453L79.7674090909091,82.62653986612956L81.05377272727272,94.10963376363118L82.34013636363636,90.16119956970215L83.6265,81.92784309387208L84.91286363636364,95.68651835123698L86.19922727272727,66.54978434244792L87.48559090909092,106.47275924682619L88.77195454545455,98.50144863128664L90.0583181818182,81.95817311604819L91.34468181818181,116.22870127360028L92.63104545454546,96.00890159606934L93.91740909090909,236.47082964579266L95.20377272727274,127.11132526397708L96.49013636363637,119.38505172729492L97.7765,123.79774729410808L99.06286363636363,103.71816635131837L100.34922727272726,119.75887616475424L101.63559090909091,113.84470621744792L102.92195454545454,125.46446959177655L104.20831818181819,157.24074522654217L105.49468181818182,128.4710137049357L106.78104545454546,130.83076318105063L108.06740909090908,165.97989400227866L109.35377272727273,117.70145893096925L110.64013636363636,137.4013614654541L111.9265,116.04543050130209L113.21286363636364,145.42674064636233L114.49922727272728,129.96082623799643L115.78559090909091,128.96767934163412L117.07195454545455,161.28823598225912L118.35831818181818,148.03369363149008L119.64468181818182,132.01321919759116L120.93104545454545,112.1915356318156L122.21740909090909,143.4582853317261L123.50377272727273,150.68093299865725L124.79013636363636,151.82019869486493L126.0765,141.3651450475057L127.36286363636363,133.28975359598797L128.64922727272727,113.47585995992026L129.9355909090909,153.07700475056967L131.22195454545454,129.98544057210287L132.50831818181817,99.0912707646688L133.79468181818183,137.20518430074057L135.08104545454546,123.83111953735354L136.3674090909091,143.4236224492391L137.65377272727272,146.25251928965253L138.94013636363638,143.55480670928955L140.2265,165.20933628082278L141.51286363636365,116.34541193644206L142.79922727272728,146.94047609965006L144.0855909090909,163.41424147288006L145.37195454545454,138.79096508026126L146.6583181818182,140.49147446950278L147.8289090909091,81.22822443644206L149.11527272727272,75.52230834960938L150.40163636363636,89.80857849121094L151.68800000000002,56.224209467569985L152.97436363636365,105.9169085820516L154.26072727272728,81.61218961079916L155.54709090909088,88.11479886372886L156.83345454545454,98.76469294230144L158.11981818181818,102.72442022959392L159.4061818181818,88.81589253743492L160.69254545454544,91.96339289347333L161.9789090909091,135.88730335235599L163.26527272727273,117.09794680277507L164.55163636363636,121.92959308624269L165.838,112.41513888041179L167.12436363636365,94.50281778971355L168.41072727272729,105.21424770355225L169.69709090909092,86.33675893147786L170.98345454545455,113.97718111673991L172.26981818181815,150.66765785217288L173.5561818181818,169.0820376078288L174.84254545454544,176.12749894460043L176.12890909090908,147.35380331675213L177.4152727272727,110.59229532877605L178.70163636363637,165.41883468627933L179.988,175.46125253041586L181.27436363636363,147.06059773763022L182.56072727272726,146.2691593170166L183.84709090909092,167.74359862009686L185.13345454545455,107.14472134908043L186.4198181818182,85.50272941589355L187.70618181818182,128.25833479563397L188.99254545454548,87.59586970011395L190.2789090909091,109.20061747233073L191.5652727272727,103.54609648386638L192.85163636363635,81.33562405904135L194.138,94.01790618896484L195.42436363636364,110.29494126637778L196.71072727272727,100.2284622192383L197.9970909090909,103.15558592478436L199.28345454545453,104.7644599278768L200.5698181818182,118.76411596934001L201.85618181818182,94.00297164916992L203.14254545454546,102.8525161743164L204.4289090909091,98.90002568562828L205.71527272727275,90.72861989339192L207.00163636363638,103.53687763214113L208.28799999999998,74.35713768005371L209.5743636363636,113.01348845163982L210.86072727272727,105.23983001708986L212.1470909090909,88.55435371398926L213.43345454545454,122.1895186106364L214.71981818181817,101.20450814565025L216.00618181818183,245.10114987691247L217.29254545454546,140.6031147638957L218.5789090909091,131.9773578643799L219.86527272727272,134.16494528452557L221.15163636363636,113.82838884989422L222.43800000000002,129.61106300354004L223.72436363636365,122.94279098510742L225.01072727272728,134.19910113016766L226.29709090909088,165.12240250905356L227.58345454545454,135.467799504598L228.86981818181818,137.99671490987143L230.1561818181818,172.85789489746097L231.44254545454544,124.44887479146324L232.7289090909091,143.7802537282308L234.01527272727273,121.92825635274254L235.30163636363636,150.99442005157474L236.588,134.93186155954996L237.87436363636365,134.09502029418945L239.16072727272729,165.9969488779704L240.44709090909092,152.15124766031903L241.73345454545455,136.47749423980713L243.01981818181815,116.1777671178182L244.3061818181818,147.3491477966309L245.59254545454544,154.1089630126953L246.87890909090908,154.64273452758792L248.1652727272727,144.58450635274252L249.45163636363637,136.36894226074222L250.738,116.54145081837974L252.02436363636363,155.59375127156576L253.31072727272726,132.7698103586833L254.59709090909092,100.94001928965251L255.88345454545455,139.17834122975668L257.1698181818182,125.73301474253337L258.4561818181818,145.15178839365643L259.74254545454545,148.0442492167155L261.0289090909091,144.98248418172201L262.3152727272727,166.452267964681L263.6016363636364,117.68670876820883L264.88800000000003,148.14699331919354L266.17436363636364,164.2586882909139L267.4607272727273,139.50183073679605L268.7470909090909,141.0959545771281" style="fill: none;" fill="none"></path></g></g></g></g></g></g><g transform="translate(47, 174)" clip-path="url(#clip_1)"><clipPath id="clip_1"><rect width="283" height="26"></rect></clipPath><g><g><line x1="0" y1="0" x2="0" y2="5" style="visibility: inherit;" fill="rgb(0, 0, 0)" stroke="rgb(204, 204, 204)" stroke-width="1px"></line><line x1="25.727272727272727" y1="0" x2="25.727272727272727" y2="5" style="visibility: inherit;" fill="rgb(0, 0, 0)" stroke="rgb(204, 204, 204)" stroke-width="1px"></line><line x1="51.45454545454545" y1="0" x2="51.45454545454545" y2="5" style="visibility: inherit;" fill="rgb(0, 0, 0)" stroke="rgb(204, 204, 204)" stroke-width="1px"></line><line x1="77.18181818181817" y1="0" x2="77.18181818181817" y2="5" style="visibility: inherit;" fill="rgb(0, 0, 0)" stroke="rgb(204, 204, 204)" stroke-width="1px"></line><line x1="102.9090909090909" y1="0" x2="102.9090909090909" y2="5" style="visibility: inherit;" fill="rgb(0, 0, 0)" stroke="rgb(204, 204, 204)" stroke-width="1px"></line><line x1="128.63636363636363" y1="0" x2="128.63636363636363" y2="5" style="visibility: inherit;" fill="rgb(0, 0, 0)" stroke="rgb(204, 204, 204)" stroke-width="1px"></line><line x1="154.36363636363635" y1="0" x2="154.36363636363635" y2="5" style="visibility: inherit;" fill="rgb(0, 0, 0)" stroke="rgb(204, 204, 204)" stroke-width="1px"></line><line x1="180.0909090909091" y1="0" x2="180.0909090909091" y2="5" style="visibility: inherit;" fill="rgb(0, 0, 0)" stroke="rgb(204, 204, 204)" stroke-width="1px"></line><line x1="205.8181818181818" y1="0" x2="205.8181818181818" y2="5" style="visibility: inherit;" fill="rgb(0, 0, 0)" stroke="rgb(204, 204, 204)" stroke-width="1px"></line><line x1="231.54545454545456" y1="0" x2="231.54545454545456" y2="5" style="visibility: inherit;" fill="rgb(0, 0, 0)" stroke="rgb(204, 204, 204)" stroke-width="1px"></line><line x1="257.27272727272725" y1="0" x2="257.27272727272725" y2="5" style="visibility: inherit;" fill="rgb(0, 0, 0)" stroke="rgb(204, 204, 204)" stroke-width="1px"></line><line x1="283" y1="0" x2="283" y2="5" style="visibility: inherit;" fill="rgb(0, 0, 0)" stroke="rgb(204, 204, 204)" stroke-width="1px"></line></g><g transform="translate(0, 8)"><text x="0" y="0" dx="0em" dy="0.95em" style="text-anchor: middle; visibility: hidden; font-family: Roboto, sans-serif; font-size: 12px; font-weight: 200;" fill="rgb(33, 33, 33)" stroke="none" stroke-width="1px">-2k</text><text x="25.727272727272727" y="0" dx="0em" dy="0.95em" style="text-anchor: middle; visibility: inherit; font-family: Roboto, sans-serif; font-size: 12px; font-weight: 200;" fill="rgb(33, 33, 33)" stroke="none" stroke-width="1px">0</text><text x="51.45454545454545" y="0" dx="0em" dy="0.95em" style="text-anchor: middle; visibility: inherit; font-family: Roboto, sans-serif; font-size: 12px; font-weight: 200;" fill="rgb(33, 33, 33)" stroke="none" stroke-width="1px">2k</text><text x="77.18181818181817" y="0" dx="0em" dy="0.95em" style="text-anchor: middle; visibility: inherit; font-family: Roboto, sans-serif; font-size: 12px; font-weight: 200;" fill="rgb(33, 33, 33)" stroke="none" stroke-width="1px">4k</text><text x="102.9090909090909" y="0" dx="0em" dy="0.95em" style="text-anchor: middle; visibility: inherit; font-family: Roboto, sans-serif; font-size: 12px; font-weight: 200;" fill="rgb(33, 33, 33)" stroke="none" stroke-width="1px">6k</text><text x="128.63636363636363" y="0" dx="0em" dy="0.95em" style="text-anchor: middle; visibility: inherit; font-family: Roboto, sans-serif; font-size: 12px; font-weight: 200;" fill="rgb(33, 33, 33)" stroke="none" stroke-width="1px">8k</text><text x="154.36363636363635" y="0" dx="0em" dy="0.95em" style="text-anchor: middle; visibility: inherit; font-family: Roboto, sans-serif; font-size: 12px; font-weight: 200;" fill="rgb(33, 33, 33)" stroke="none" stroke-width="1px">10k</text><text x="180.0909090909091" y="0" dx="0em" dy="0.95em" style="text-anchor: middle; visibility: inherit; font-family: Roboto, sans-serif; font-size: 12px; font-weight: 200;" fill="rgb(33, 33, 33)" stroke="none" stroke-width="1px">12k</text><text x="205.8181818181818" y="0" dx="0em" dy="0.95em" style="text-anchor: middle; visibility: inherit; font-family: Roboto, sans-serif; font-size: 12px; font-weight: 200;" fill="rgb(33, 33, 33)" stroke="none" stroke-width="1px">14k</text><text x="231.54545454545456" y="0" dx="0em" dy="0.95em" style="text-anchor: middle; visibility: inherit; font-family: Roboto, sans-serif; font-size: 12px; font-weight: 200;" fill="rgb(33, 33, 33)" stroke="none" stroke-width="1px">16k</text><text x="257.27272727272725" y="0" dx="0em" dy="0.95em" style="text-anchor: middle; visibility: inherit; font-family: Roboto, sans-serif; font-size: 12px; font-weight: 200;" fill="rgb(33, 33, 33)" stroke="none" stroke-width="1px">18k</text><text x="283" y="0" dx="0em" dy="0.95em" style="text-anchor: middle; visibility: hidden; font-family: Roboto, sans-serif; font-size: 12px; font-weight: 200;" fill="rgb(33, 33, 33)" stroke="none" stroke-width="1px">20k</text></g><line x1="0" y1="0" x2="283" y2="0" fill="rgb(0, 0, 0)" stroke="rgb(204, 204, 204)" stroke-width="1px"></line></g></g></g></g></svg>